STARTFONT 2.3
FONT -FontForge-Fredoka One-Book-R-Normal--20-200-72-72-P-116-ISO10646-1
SIZE 20 72 72  4
FONTBOUNDINGBOX 27 25 -3 -5
COMMENT "Generated by fontforge, http://fontforge.sourceforge.net"
COMMENT "Copyright (c) 2011 Milena B Brandao (milenabbrandao@gmail.com), with Reserved Font Name "Fredoka""
STARTPROPERTIES 40
FOUNDRY "FontForge"
FAMILY_NAME "Fredoka One"
WEIGHT_NAME "Book"
SLANT "R"
SETWIDTH_NAME "Normal"
ADD_STYLE_NAME ""
PIXEL_SIZE 20
POINT_SIZE 200
RESOLUTION_X 72
RESOLUTION_Y 72
SPACING "P"
AVERAGE_WIDTH 116
CHARSET_REGISTRY "ISO10646"
CHARSET_ENCODING "1"
FONTNAME_REGISTRY ""
CHARSET_COLLECTIONS "ISO10646-1"
BITS_PER_PIXEL 4
FONT_NAME "FredokaOne-Regular"
FACE_NAME "Fredoka One"
COPYRIGHT "Copyright (c) 2011 Milena B Brandao (milenabbrandao@gmail.com), with Reserved Font Name "Fredoka""
FONT_VERSION "1.001"
FONT_ASCENT 16
FONT_DESCENT 4
UNDERLINE_POSITION -2
UNDERLINE_THICKNESS 1
X_HEIGHT 10
CAP_HEIGHT 14
RAW_ASCENT 800
RAW_DESCENT 200
NORM_SPACE 5
RELATIVE_WEIGHT 40
RELATIVE_SETWIDTH 50
SUPERSCRIPT_X 0
SUPERSCRIPT_Y 9
SUPERSCRIPT_SIZE 13
SUBSCRIPT_X 0
SUBSCRIPT_Y 2
SUBSCRIPT_SIZE 13
AVG_LOWERCASE_WIDTH 114
AVG_UPPERCASE_WIDTH 139
ENDPROPERTIES
CHARS 235
STARTCHAR space
ENCODING 32
SWIDTH 253 0
DWIDTH 5 0
BBX 1 1 0 0
BITMAP
00
ENDCHAR
STARTCHAR exclam
ENCODING 33
SWIDTH 267 0
DWIDTH 5 0
BBX 5 15 0 0
BITMAP
07B910
1FFF60
1FFF70
1FFF70
1FFF70
1FFF70
1FFF70
1FFF70
1FFF60
07B910
000000
06A910
2FFF70
2FFF80
0BFD30
ENDCHAR
STARTCHAR quotedbl
ENCODING 34
SWIDTH 429 0
DWIDTH 9 0
BBX 9 8 0 7
BITMAP
1892059500
6FF90FFF00
7FFA1FFF10
6FF90FFF00
4FF60DFD00
1FF30AFA00
0BD005F500
0220004000
ENDCHAR
STARTCHAR numbersign
ENCODING 35
SWIDTH 749 0
DWIDTH 15 0
BBX 15 15 0 0
BITMAP
0000298100397000
0000AFF300CFF100
0000CFF100EFE000
0000EFD002FFB000
06CCFFECCDFFEC60
0DFFFFFFFFFFFF90
09CEFFDCCEFFCC30
000AFF400CFF1000
000CFF100EFD0000
5FFFFFFFFFFFFB00
AFFFFFFFFFFFFC00
59BFFCAACFFB9400
007FF6009FF40000
009FF400CFF10000
008DA000AD900000
ENDCHAR
STARTCHAR dollar
ENCODING 36
SWIDTH 475 0
DWIDTH 10 0
BBX 9 18 0 -2
BITMAP
0001740000
0006FD0000
0006FE0000
007DFFB400
09FFFFFF30
2FFEACFE10
4FF9005300
2FFE841000
0AFFFFE910
007DFFFF90
011027FFE0
2EE300EFE0
6FFEACFFB0
1CFFFFFE30
017DFFA200
0006FE0000
0006FD0000
0001950000
ENDCHAR
STARTCHAR percent
ENCODING 37
SWIDTH 838 0
DWIDTH 17 0
BBX 16 17 0 -1
BITMAP
0000000000048000
005AA700000CF200
06FFFFB0006F9000
0EFDBFF400DE2000
2FF10BF706F80000
2FF10BF71EE10000
0EFDBFF57F700000
06FFFFC1EE100000
0049A718F6046400
0000002FD1BFFFC1
0000009F56FFFFF9
000002FC0AF906FD
00000AF50BF704FE
00003FC009FD6BFC
0000BF4003FFFFF6
0003FB00005DFE70
0000720000000000
ENDCHAR
STARTCHAR ampersand
ENCODING 38
SWIDTH 748 0
DWIDTH 15 0
BBX 15 17 0 -1
BITMAP
0000145310000000
0008FFFFE5000000
008FFFFFFF200000
00DFF95DFF700000
00FFF30CFF700000
00DFF7BFFF300000
00AFFFFFF8000000
005FFFFF70000000
02DFFFF500156100
0BFFFFFC00AFF900
3FFFEFFFB2EFF700
7FFF2CFFFEFFF200
7FFF41DFFFFFB300
4FFFFCEFFFFFFF50
0BFFFFFFFFFFFF70
018DFFFE938CEE30
0000121000000000
ENDCHAR
STARTCHAR quotesingle
ENCODING 39
SWIDTH 208 0
DWIDTH 4 0
BBX 4 8 0 7
BITMAP
1892
6FF9
7FFA
6FF9
4FF6
1FF3
0BD0
0220
ENDCHAR
STARTCHAR parenleft
ENCODING 40
SWIDTH 384 0
DWIDTH 8 0
BBX 8 21 0 -5
BITMAP
00002670
0006EFF5
005FFFF3
00DFF600
05FFA000
0AFF4000
0EFF0000
2FFC0000
4FFA0000
5FF90000
6FF90000
5FF90000
4FFA0000
2FFC0000
0EFE0000
0AFF3000
05FF9000
00DFF500
005FFFF3
0007FFF5
00002771
ENDCHAR
STARTCHAR parenright
ENCODING 41
SWIDTH 384 0
DWIDTH 8 0
BBX 8 21 0 -5
BITMAP
27500000
AFFD3000
8FFFD100
01AFF900
001EFE10
0009FF50
0005FF90
0002FFC0
0000FFE0
0000EFF0
0000EFF1
0000EFF0
0000FFE0
0002FFC0
0004FF90
0008FF50
000DFE10
009FF900
7FFFE100
AFFD3000
38610000
ENDCHAR
STARTCHAR asterisk
ENCODING 42
SWIDTH 503 0
DWIDTH 10 0
BBX 10 10 0 5
BITMAP
0004CC4000
0008FFA000
2B9BFFC9C2
8FFFFFFFF9
9FFFFFFFFA
17DFFFFE71
02EFFFFF30
09FFFEFFA0
03DF65FE30
0013003100
ENDCHAR
STARTCHAR plus
ENCODING 43
SWIDTH 527 0
DWIDTH 11 0
BBX 10 11 0 0
BITMAP
0000231000
0002FFB000
0004FFD000
0015FFD110
4FFFFFFFFB
7FFFFFFFFF
4FFFFFFFFC
0115FFD110
0004FFD000
0003FFB000
0000241000
ENDCHAR
STARTCHAR comma
ENCODING 44
SWIDTH 238 0
DWIDTH 5 0
BBX 5 8 0 -4
BITMAP
19A800
6FFF30
7FFF40
3DFF10
05FC00
2DF500
7F8000
110000
ENDCHAR
STARTCHAR hyphen
ENCODING 45
SWIDTH 433 0
DWIDTH 9 0
BBX 9 4 0 2
BITMAP
3DEEEEEB00
7FFFFFFF20
5FFFFFFE10
0233333100
ENDCHAR
STARTCHAR period
ENCODING 46
SWIDTH 237 0
DWIDTH 5 0
BBX 5 4 0 0
BITMAP
19A700
7FFF20
7FFF30
3DFC00
ENDCHAR
STARTCHAR slash
ENCODING 47
SWIDTH 526 0
DWIDTH 11 0
BBX 11 18 0 -2
BITMAP
000000058200
0000002FFE20
0000009FFF10
000001FFF900
000008FFF200
00001EFFA000
00007FFF3000
0001EFFA0000
0007FFF30000
000EFFB00000
006FFF400000
00DFFB000000
05FFF4000000
0DFFC0000000
5FFF50000000
AFFC00000000
4DF500000000
001000000000
ENDCHAR
STARTCHAR zero
ENCODING 48
SWIDTH 608 0
DWIDTH 12 0
BBX 12 16 0 -1
BITMAP
00039CCA4000
007FFFFFF900
04FFFFFFFF60
0BFFFCCFFFD0
1FFFB008FFF3
5FFF4002FFF7
6FFF2000EFF8
7FFF1000DFFA
7FFF2000EFF9
6FFF3001FFF8
3FFF8005FFF5
0EFFF76EFFF1
08FFFFFFFFA0
01CFFFFFFD20
0019FFFFB200
000013410000
ENDCHAR
STARTCHAR one
ENCODING 49
SWIDTH 407 0
DWIDTH 8 0
BBX 8 15 0 0
BITMAP
00004A80
0006FFF4
008FFFF5
09FFFFF5
7FFFFFF5
8FFFFFF5
1AD8FFF5
0003FFF5
0003FFF5
0003FFF5
0003FFF5
0003FFF5
0003FFF5
0003FFF5
0001CFD2
ENDCHAR
STARTCHAR two
ENCODING 50
SWIDTH 609 0
DWIDTH 12 0
BBX 12 16 0 -1
BITMAP
0005ADC93000
00AFFFFFF700
08FFFFFFFF50
2FFFFBCFFFD0
6FFF6009FFF2
7FFF1005FFF4
5FFD000AFFF3
0341009FFFD0
00003CFFFF50
0018FFFFF700
02DFFFFD4000
0DFFFFD88872
5FFFFFFFFFFB
7FFFFFFFFFFD
1CFFFFFFFFF8
001111111100
ENDCHAR
STARTCHAR three
ENCODING 51
SWIDTH 608 0
DWIDTH 12 0
BBX 12 16 0 -1
BITMAP
0005ADDB6000
00AFFFFFFC10
07FFFFFFFFA0
0CFFFA9EFFF2
08FF7005FFF5
0056168CFFF3
00006FFFFFA0
00007FFFFE20
00003EFFFFE1
06740016FFF7
6FFE1000EFF9
5FFFB449FFF7
1EFFFFFFFFF2
04FFFFFFFF60
003BFFFFC400
000013320000
ENDCHAR
STARTCHAR four
ENCODING 52
SWIDTH 592 0
DWIDTH 12 0
BBX 12 15 0 0
BITMAP
005A71019A50
00EFF807FFF0
03FFF708FFF1
07FFF308FFF1
0AFFE008FFF1
0EFFB008FFF1
3FFF7008FFF1
7FFFA88CFFF1
AFFFFFFFFFF1
AFFFFFFFFFF1
3BBCCCCDFFF1
00000008FFF1
00000008FFF1
00000007FFF0
00000003DE90
ENDCHAR
STARTCHAR five
ENCODING 53
SWIDTH 530 0
DWIDTH 11 0
BBX 11 16 0 -1
BITMAP
018AAAAAA300
07FFFFFFFB00
0BFFFFFFFB00
0DFFECCCC500
0FFF80000000
2FFFCA710000
4FFFFFFE5000
6FFFFFFFF300
4FFFEEFFFB00
039710BFFF00
0240008FFF10
2EFB56EFFE00
9FFFFFFFF800
4FFFFFFFD100
03AFFFFA1000
000134100000
ENDCHAR
STARTCHAR six
ENCODING 54
SWIDTH 560 0
DWIDTH 11 0
BBX 11 16 0 -1
BITMAP
00000168A700
00019FFFFF30
001CFFFFFF40
00BFFFFEDB10
06FFFD500000
0CFFE2000000
2FFFCAA71000
5FFFFFFFE300
7FFFFFFFFE20
7FFFC69FFF80
6FFF300DFFA0
3FFF713EFF90
0CFFFFFFFF40
04FFFFFFF900
004CFFFE7000
000024300000
ENDCHAR
STARTCHAR seven
ENCODING 55
SWIDTH 561 0
DWIDTH 11 0
BBX 11 15 0 0
BITMAP
29AAAAAAA940
9FFFFFFFFFD0
AFFFFFFFFFD0
4DEEEEEFFFA0
000000AFFF40
000004FFFB00
00001EFFF300
00009FFF9000
0003FFFD1000
000AFFF50000
001FFFC00000
005FFF600000
008FFF100000
009FFE000000
006EF9000000
ENDCHAR
STARTCHAR eight
ENCODING 56
SWIDTH 582 0
DWIDTH 12 0
BBX 12 16 0 -1
BITMAP
0006BEDA3000
00AFFFFFF600
08FFFFFFFF20
0EFFE8AFFF80
1FFF800EFFA0
0DFFE68FFF80
06FFFFFFFE20
04FFFFFFFD10
1EFFFEFFFF90
6FFF701CFFF0
7FFF2007FFF2
5FFFA24DFFE0
1EFFFFFFFF90
04FFFFFFFC10
003CFFFF9100
000024310000
ENDCHAR
STARTCHAR nine
ENCODING 57
SWIDTH 560 0
DWIDTH 11 0
BBX 11 15 0 0
BITMAP
0018CDC81000
02DFFFFFE300
0DFFFFFFFC00
4FFFA6AFFF40
7FFF100FFF80
6FFF515FFFA0
2EFFFFFFFFA0
05FFFFFFFF90
004BFFEFFF60
0000019FFF20
000007FFFB00
0489DFFFF300
1FFFFFFF7000
1FFFFFE60000
0BFEC8200000
ENDCHAR
STARTCHAR colon
ENCODING 58
SWIDTH 238 0
DWIDTH 5 0
BBX 5 11 0 0
BITMAP
001000
3EFD10
7FFF30
6FFF30
179600
000000
000000
19A700
6FFF30
7FFF30
3DFC00
ENDCHAR
STARTCHAR semicolon
ENCODING 59
SWIDTH 237 0
DWIDTH 5 0
BBX 5 15 0 -4
BITMAP
001000
3EFD10
7FFF30
6FFF20
189600
000000
000000
19A700
7FFF20
7FFF30
3EFF10
05FC00
2CF500
7F8000
110000
ENDCHAR
STARTCHAR less
ENCODING 60
SWIDTH 627 0
DWIDTH 13 0
BBX 13 14 0 0
BITMAP
0000000004A400
00000002AFFE10
0000007EFFFF20
00004DFFFFD400
002BFFFFE70000
08FFFFFA200000
8FFFFD40000000
9FFFFA10000000
2BFFFFE6000000
005DFFFFC40000
00018FFFFFA200
000002BFFFFE10
00000005DFFF10
0000000007D600
ENDCHAR
STARTCHAR equal
ENCODING 61
SWIDTH 478 0
DWIDTH 10 0
BBX 9 9 0 0
BITMAP
0011111100
4FFFFFFFC0
7FFFFFFFF0
3DEEEEEEB0
0000000000
3BDDDDDD80
7FFFFFFFF0
5FFFFFFFD0
0122222210
ENDCHAR
STARTCHAR greater
ENCODING 62
SWIDTH 627 0
DWIDTH 13 0
BBX 13 14 0 0
BITMAP
09810000000000
7FFE6000000000
9FFFFC30000000
18FFFFF9100000
003BFFFFE60000
00005DFFFFC300
0000018FFFFE10
0000004DFFFF20
00002BFFFFE600
0018FFFFFA2000
05DFFFFC400000
7FFFFE70000000
8FFF9100000000
1CC30000000000
ENDCHAR
STARTCHAR question
ENCODING 63
SWIDTH 512 0
DWIDTH 10 0
BBX 10 15 0 0
BITMAP
006CFFC500
09FFFFFF70
4FFFFFFFF3
9FFD44CFF9
4EF5007FFB
002002CFF9
00009FFFF3
0006FFFF60
0008FFC200
0003BB4000
0000000000
0003AA4000
000CFFC000
000CFFD000
0007FF8000
ENDCHAR
STARTCHAR at
ENCODING 64
SWIDTH 908 0
DWIDTH 18 0
BBX 18 17 0 -3
BITMAP
000000145430000000
00005BFFFFFFB50000
001AFFFFFFFFFFB100
00AFFE842348EFFC10
06FFB105843849FF80
0EFD11CFFFEFA0AFF1
4FF50BFFFFFF803FF6
6FF23FF918FF600EF8
7FF06FF306FF400DFA
7FF14FFC8EFF200EF9
5FF40DFFFFFF003FF6
1FF902CFDCFD01CFF2
0BFF400008FFBEFF90
03FFE72002EFFFFA00
006FFFFED33ACA5000
0004CFFFF500000000
000003788100000000
ENDCHAR
STARTCHAR A
ENCODING 65
SWIDTH 765 0
DWIDTH 15 0
BBX 15 16 0 -1
BITMAP
0000003960000000
000001EFF5000000
000008FFFC000000
00001EFFFF400000
00007FFFFFC00000
0001EFFFFFF40000
0007FFFAFFFB0000
000DFFE1BFFF3000
006FFF915FFFB000
00DFFFFFFFFFF300
06FFFFFFFFFFFA00
0DFFFDDDDDEFFF20
5FFF9000004FFF90
AFFF2000000CFFE0
3DF900000004FE60
0020000000002100
ENDCHAR
STARTCHAR B
ENCODING 66
SWIDTH 646 0
DWIDTH 13 0
BBX 13 15 0 0
BITMAP
07AAAAAA940000
2FFFFFFFFF8000
3FFFFFFFFFF600
3FFFEDDEFFFC00
3FFF5000AFFF00
3FFF5002BFFD00
3FFF51DFFFF800
3FFF52FFFFF800
3FFF509CEFFF10
3FFF50004FFF50
3FFF50003FFF60
3FFFB889DFFF30
3FFFFFFFFFFD00
3FFFFFFFFFE300
0BFFFFFFEA2000
ENDCHAR
STARTCHAR C
ENCODING 67
SWIDTH 679 0
DWIDTH 14 0
BBX 13 16 0 -1
BITMAP
0000049BC95000
0004DFFFFFFD40
007FFFFFFFFFF0
04FFFFFCCEFFC0
0CFFFA20018B20
3FFFA000000000
6FFF4000000000
7FFF1000000000
6FFF2000000000
4FFF7000000000
0EFFE400003600
07FFFFB76AFF80
00BFFFFFFFFFF0
0008FFFFFFFFA0
00004AFFFFB500
00000002310000
ENDCHAR
STARTCHAR D
ENCODING 68
SWIDTH 704 0
DWIDTH 14 0
BBX 14 15 0 0
BITMAP
07AAAA98400000
2FFFFFFFFD4000
3FFFFFFFFFF600
3FFFEDEFFFFF40
3FFF5002AFFFD0
3FFF50000AFFF4
3FFF500002FFF7
3FFF500000FFF8
3FFF500001FFF7
3FFF500007FFF5
3FFF50005FFFE1
3FFFB89CFFFF70
3FFFFFFFFFFA00
3FFFFFFFFF9000
0BEFFFED930000
ENDCHAR
STARTCHAR E
ENCODING 69
SWIDTH 638 0
DWIDTH 13 0
BBX 13 15 0 0
BITMAP
06AAAAAAAAA700
2FFFFFFFFFFF30
3FFFFFFFFFFF30
3FFFEDDDDDDB00
3FFF5000000000
3FFF6111100000
3FFFFFFFFB0000
3FFFFFFFFF0000
3FFFFFFFFE0000
3FFF9777630000
3FFF5000000000
3FFFB888888600
3FFFFFFFFFFF30
3FFFFFFFFFFF40
0CFFFFFFFFFC10
ENDCHAR
STARTCHAR F
ENCODING 70
SWIDTH 637 0
DWIDTH 13 0
BBX 13 15 0 0
BITMAP
06AAAAAAAAA700
2FFFFFFFFFFF30
3FFFFFFFFFFF30
3FFFEDDDDDDA00
3FFF5000000000
3FFF6111100000
3FFFFFFFFB0000
3FFFFFFFFF0000
3FFFFFFFFE0000
3FFFA777730000
3FFF5000000000
3FFF5000000000
3FFF5000000000
3FFF5000000000
0CFC1000000000
ENDCHAR
STARTCHAR G
ENCODING 71
SWIDTH 714 0
DWIDTH 14 0
BBX 14 16 0 -1
BITMAP
000017BDDB7100
0006EFFFFFFE50
008FFFFFFFFFE0
05FFFFDABEFFA0
0DFFF700017910
3FFF9000000000
6FFF3008CDDDB2
7FFF100EFFFFF7
6FFF300CFFFFF7
4FFF800012FFF7
0DFFF50001FFF7
06FFFFA669FFF7
00AFFFFFFFFFF6
000AFFFFFFFFC1
00005CFFFFD700
00000012210000
ENDCHAR
STARTCHAR H
ENCODING 72
SWIDTH 699 0
DWIDTH 14 0
BBX 14 15 0 0
BITMAP
06980000007960
2FFF400005FFF2
3FFF500005FFF3
3FFF500005FFF3
3FFF500005FFF3
3FFF500005FFF3
3FFFDCCCCDFFF3
3FFFFFFFFFFFF3
3FFFFFFFFFFFF3
3FFF722227FFF3
3FFF500005FFF3
3FFF500005FFF3
3FFF500005FFF3
3FFF500005FFF3
0BEC100002DFB0
ENDCHAR
STARTCHAR I
ENCODING 73
SWIDTH 257 0
DWIDTH 5 0
BBX 5 15 0 0
BITMAP
069800
2FFF40
3FFF50
3FFF50
3FFF50
3FFF50
3FFF50
3FFF50
3FFF50
3FFF50
3FFF50
3FFF50
3FFF50
3FFF50
0CFC10
ENDCHAR
STARTCHAR J
ENCODING 74
SWIDTH 549 0
DWIDTH 11 0
BBX 11 16 0 -1
BITMAP
00000007A600
0000004FFF20
0000005FFF30
0000005FFF30
0000005FFF30
0000005FFF30
0000005FFF30
0000005FFF30
0000005FFF30
0000005FFF30
0591008FFF20
5FFD78FFFE00
9FFFFFFFF700
2DFFFFFFA000
019FFFE70000
000122000000
ENDCHAR
STARTCHAR K
ENCODING 75
SWIDTH 639 0
DWIDTH 13 0
BBX 12 16 0 -1
BITMAP
069800001AB2
2FFF4000BFFD
3FFF5009FFFD
3FFF508FFFF4
3FFF56FFFF40
3FFF9FFFF500
3FFFFFFF4000
3FFFFFF50000
3FFFFFFD2000
3FFFCFFFD200
3FFF5AFFFD20
3FFF50BFFFD1
3FFF501DFFFB
3FFF5002EFFE
0CFC10003EE4
000000000110
ENDCHAR
STARTCHAR L
ENCODING 76
SWIDTH 587 0
DWIDTH 12 0
BBX 12 15 0 0
BITMAP
069800000000
2FFF40000000
3FFF50000000
3FFF50000000
3FFF50000000
3FFF50000000
3FFF50000000
3FFF50000000
3FFF50000000
3FFF50000000
3FFF50000000
3FFF50000000
3FFFFEEEEEC1
3FFFFFFFFFF3
0CFFFFFFFFD1
ENDCHAR
STARTCHAR M
ENCODING 77
SWIDTH 870 0
DWIDTH 17 0
BBX 17 15 0 0
BITMAP
069700000000049810
2FFF900000004FFF80
3FFFF6000002EFFF90
3FFFFE30000BFFFF90
3FFFFFD1008FFFFF90
3FFFFFFA05FFFFFF90
3FFFEFFF8EFFEFFF90
3FFF6DFFFFFF5EFF90
3FFF54FFFFF90EFF90
3FFF507FFFC00EFF90
3FFF500AFE200EFF90
3FFF500021000EFF90
3FFF500000000EFF90
3FFF400000000EFF90
0BEC1000000008EE40
ENDCHAR
STARTCHAR N
ENCODING 78
SWIDTH 720 0
DWIDTH 14 0
BBX 14 15 0 0
BITMAP
06970000004982
2FFF900000DFF8
3FFFF50000EFF9
3FFFFE2000EFF9
3FFFFFC000EFF9
3FFFFFF900EFF9
3FFFEFFF50EFF9
3FFF6EFFE2EFF9
3FFF54FFFCEFF9
3FFF508FFFFFF9
3FFF500BFFFFF9
3FFF5002EFFFF9
3FFF50004FFFF9
3FFF500008FFF9
0BFC100000AFE4
ENDCHAR
STARTCHAR O
ENCODING 79
SWIDTH 775 0
DWIDTH 16 0
BBX 15 16 0 -1
BITMAP
000017BCB9400000
0006EFFFFFFB1000
007FFFFFFFFFD100
04FFFFEBCFFFFC00
0CFFF80003DFFF50
2FFFA000003FFFA0
6FFF3000000BFFD0
7FFF10000009FFF0
7FFF20000009FFE0
4FFF7000000DFFB0
1EFFE300009FFF70
08FFFE856CFFFE10
00CFFFFFFFFFF500
001BFFFFFFFF6000
00006DFFFFA30000
0000001331000000
ENDCHAR
STARTCHAR P
ENCODING 80
SWIDTH 632 0
DWIDTH 13 0
BBX 13 15 0 0
BITMAP
06AAAAA9500000
2FFFFFFFFD3000
3FFFFFFFFFE200
3FFFEDDFFFFA00
3FFF5001CFFF00
3FFF50006FFF20
3FFF5000AFFF10
3FFFB99BFFFC00
3FFFFFFFFFF500
3FFFFFFFFF7000
3FFFFEEDA30000
3FFF5000000000
3FFF5000000000
3FFF5000000000
0BEC1000000000
ENDCHAR
STARTCHAR Q
ENCODING 81
SWIDTH 830 0
DWIDTH 17 0
BBX 17 16 0 -1
BITMAP
000017BCB940000000
0006EFFFFFFB100000
007FFFFFFFFFD10000
04FFFFEBCFFFFC0000
0CFFF80003DFFF5000
2FFFA000003FFFA000
6FFF3000000BFFD000
7FFF10000009FFF000
7FFF20000009FFE000
4FFF7000000DFFB000
1EFFE300009FFF7000
08FFFE856CFFFFC200
00CFFFFFFFFFFFFE20
001BFFFFFFFFEFFF20
00006DFFFFA32BF800
000000133100002000
ENDCHAR
STARTCHAR R
ENCODING 82
SWIDTH 631 0
DWIDTH 13 0
BBX 13 16 0 -1
BITMAP
06AAAAA9500000
2FFFFFFFFD3000
3FFFFFFFFFE200
3FFFEDDFFFFA00
3FFF5001CFFF00
3FFF50006FFF20
3FFF50009FFF10
3FFFB99BFFFD00
3FFFFFFFFFF500
3FFFFFFFFFC000
3FFFFEEFFFF200
3FFF5004FFF800
3FFF5000DFFE10
3FFF50006FFF40
0BEC10001DF900
00000000001000
ENDCHAR
STARTCHAR S
ENCODING 83
SWIDTH 583 0
DWIDTH 12 0
BBX 12 16 0 -1
BITMAP
0018CDDA5000
02DFFFFFFB00
0BFFFFFFFF40
2FFFD68FFC00
3FFF50026100
2FFFC4000000
0CFFFFFC7100
02DFFFFFFE30
0017CFFFFFC0
0000026DFFF1
09E70007FFF2
6FFF923CFFF0
4FFFFFFFFFA0
07FFFFFFFD10
004CFFFE8100
000012200000
ENDCHAR
STARTCHAR T
ENCODING 84
SWIDTH 731 0
DWIDTH 15 0
BBX 15 15 0 0
BITMAP
4AAAAAAAAAAAA910
AFFFFFFFFFFFFF40
8FFFFFFFFFFFFF30
033338FFF4333200
000006FFF1000000
000006FFF1000000
000006FFF1000000
000006FFF1000000
000006FFF1000000
000006FFF1000000
000006FFF1000000
000006FFF1000000
000006FFF1000000
000006FFF0000000
000002DFA0000000
ENDCHAR
STARTCHAR U
ENCODING 85
SWIDTH 726 0
DWIDTH 15 0
BBX 14 16 0 -1
BITMAP
07A80000003993
2FFF400000CFFA
3FFF500000CFFB
3FFF500000CFFB
3FFF500000CFFB
3FFF500000CFFB
3FFF500000CFFB
3FFF500000CFFB
3FFF600000DFFA
1FFF900001FFF9
0CFFE10008FFF5
06FFFD759FFFE0
00CFFFFFFFFF60
002DFFFFFFF800
00019EFFFC5000
00000023100000
ENDCHAR
STARTCHAR V
ENCODING 86
SWIDTH 783 0
DWIDTH 16 0
BBX 16 15 0 0
BITMAP
06B4000000008A40
8FFD00000003FFF3
8FFF5000000AFFF3
1FFFC000002FFFB0
09FFF400009FFF30
02FFFA0001EFFB00
009FFF2008FFF400
002FFF901EFFB000
0009FFF26FFF4000
0002FFF8DFFB0000
00009FFFFFF40000
00002FFFFFC00000
000009FFFF400000
000002FFFC000000
0000006ED2000000
ENDCHAR
STARTCHAR W
ENCODING 87
SWIDTH 999 0
DWIDTH 20 0
BBX 20 15 0 0
BITMAP
17B40000188100005B71
9FFD0000AFFA0000DFF9
8FFF3001FFFE0003FFF7
3FFF8006FFFF5008FFF2
0DFFD00BFFFFA00DFFC0
08FFF21FFFFFE03FFF70
02FFF76FFFFFF58FFF20
00CFFCBFFDDFFADFFC00
007FFFFFF88FFFFFF600
002FFFFFF23FFFFFF100
000CFFFFC00DFFFFB000
0006FFFF7008FFFF6000
0001FFFF2003FFFF1000
0000BFFC0000DFFA0000
00003DD400004ED30000
ENDCHAR
STARTCHAR X
ENCODING 88
SWIDTH 741 0
DWIDTH 15 0
BBX 15 16 0 -1
BITMAP
0AE500000007E800
8FFF4000006FFF50
7FFFE30005FFFF40
0AFFFD203EFFF800
00BFFFC3EFFF9000
001CFFFFFFFA0000
0001DFFFFFB00000
00003FFFFE100000
0001CFFFFFA00000
000BFFFFFFF80000
00AFFFE5EFFF7000
08FFFE305FFFF600
5FFFF40007FFFF30
9FFF6000009FFF60
1CF80000000AFA00
0020000000002000
ENDCHAR
STARTCHAR Y
ENCODING 89
SWIDTH 686 0
DWIDTH 14 0
BBX 14 15 0 0
BITMAP
07C40000008C40
8FFE100004FFF3
7FFFA0001DFFF3
1DFFF4008FFF90
04FFFD03FFFD10
008FFF8CFFF400
001DFFFFFF9000
0004FFFFFD1000
00008FFFF40000
00001EFFB00000
00000EFFA00000
00000EFFA00000
00000EFFA00000
00000EFF900000
000009FF500000
ENDCHAR
STARTCHAR Z
ENCODING 90
SWIDTH 643 0
DWIDTH 13 0
BBX 13 16 0 -1
BITMAP
19AAAAAAAA9300
7FFFFFFFFFFE00
7FFFFFFFFFFE00
2BCCCCCFFFF700
0000009FFFB000
000004FFFE2000
00001EFFF50000
0000BFFF900000
0007FFFC100000
003FFFF3000000
01DFFF60000000
0AFFFE66666400
4FFFFFFFFFFF30
6FFFFFFFFFFF50
1CFFFFFFFFFE20
00111111111000
ENDCHAR
STARTCHAR bracketleft
ENCODING 91
SWIDTH 348 0
DWIDTH 7 0
BBX 7 21 0 -5
BITMAP
04777620
2FFFFF90
3FFFFF90
3FFF7610
3FFF1000
3FFF1000
3FFF1000
3FFF1000
3FFF1000
3FFF1000
3FFF1000
3FFF1000
3FFF1000
3FFF1000
3FFF1000
3FFF1000
3FFF1000
3FFF6510
3FFFFF90
2FFFFF90
05888720
ENDCHAR
STARTCHAR backslash
ENCODING 92
SWIDTH 528 0
DWIDTH 11 0
BBX 11 18 0 -2
BITMAP
059200000000
8FFA00000000
8FFF20000000
1FFF90000000
09FFF2000000
02FFF9000000
009FFF100000
002FFF800000
000AFFE10000
0003FFF70000
0000BFFE1000
00003FFF7000
00000BFFE000
000004FFF600
000000CFFD00
0000005FFF30
0000000CF900
000000001000
ENDCHAR
STARTCHAR bracketright
ENCODING 93
SWIDTH 348 0
DWIDTH 7 0
BBX 7 21 0 -5
BITMAP
26777300
AFFFFF10
AFFFFF20
267FFF20
001FFF20
001FFF20
001FFF20
001FFF20
001FFF20
001FFF20
001FFF20
001FFF20
001FFF20
001FFF20
001FFF20
001FFF20
001FFF20
156FFF20
9FFFFF20
AFFFFF10
27888400
ENDCHAR
STARTCHAR asciicircum
ENCODING 94
SWIDTH 526 0
DWIDTH 11 0
BBX 10 6 0 5
BITMAP
00008C3000
0009FFE300
009FFFFE30
09FFFCFFE3
2FFF51BFFA
08F5001BD2
ENDCHAR
STARTCHAR underscore
ENCODING 95
SWIDTH 826 0
DWIDTH 17 0
BBX 17 4 0 -5
BITMAP
033333333333333100
9FFFFFFFFFFFFFFF20
AFFFFFFFFFFFFFFF30
388888888888888700
ENDCHAR
STARTCHAR grave
ENCODING 96
SWIDTH 482 0
DWIDTH 10 0
BBX 6 5 2 11
BITMAP
251000
CFFB72
FFFFFC
4AEFF9
000482
ENDCHAR
STARTCHAR a
ENCODING 97
SWIDTH 596 0
DWIDTH 12 0
BBX 12 11 0 0
BITMAP
000167406840
006EFFFCFFF1
05FFFFFFFFF2
1EFFFFFFFFF2
5FFF903EFFF2
7FFF1008FFF2
6FFF400BFFF2
3FFFE9BFFFF2
0AFFFFFFFFF2
01CFFFFFFFF2
0018DEB4CEB0
ENDCHAR
STARTCHAR b
ENCODING 98
SWIDTH 592 0
DWIDTH 12 0
BBX 12 16 0 0
BITMAP
036400000000
2FFF30000000
3FFF40000000
3FFF40000000
3FFF40000000
3FFF44761000
3FFFDFFFE400
3FFFFFFFFF30
3FFFFFFFFFC0
3FFFD21BFFF3
3FFF6003FFF5
3FFF9006FFF4
3FFFFA9FFFE1
3FFFFFFFFF80
3FFFFFFFFA00
0BEC4BEC7000
ENDCHAR
STARTCHAR c
ENCODING 99
SWIDTH 517 0
DWIDTH 10 0
BBX 10 12 0 -1
BITMAP
0001799610
006EFFFFE4
06FFFFFFFC
1EFFFFFFF7
5FFFA11880
7FFF200000
6FFF500110
3FFFE89FE2
0BFFFFFFFB
01CFFFFFF9
0007DFFD60
0000010000
ENDCHAR
STARTCHAR d
ENCODING 100
SWIDTH 598 0
DWIDTH 12 0
BBX 12 16 0 0
BITMAP
000000004630
00000004FFF1
00000005FFF2
00000005FFF2
00000005FFF2
00016745FFF2
005EFFFDFFF2
04FFFFFFFFF2
0DFFFFFFFFF2
4FFFA12DFFF2
6FFF2007FFF2
5FFF500AFFF2
1FFFE9AFFFF2
09FFFFFFFFF2
00BFFFFFFFF2
0007CEB4DFB0
ENDCHAR
STARTCHAR e
ENCODING 101
SWIDTH 573 0
DWIDTH 11 0
BBX 11 12 0 -1
BITMAP
00028BB94000
008FFFFFF900
07FFFFFFFF60
1FFFF97EFFC0
5FFF7009FFE0
7FFFEEEFFFB0
7FFFEDDDDB30
3FFF90003300
0CFFFECEFE20
03EFFFFFFF60
002AFFFFFB10
000013431000
ENDCHAR
STARTCHAR f
ENCODING 102
SWIDTH 450 0
DWIDTH 9 0
BBX 9 16 0 0
BITMAP
0000267400
0007FFFF10
004FFFFF20
00BFFFFC00
00DFFB0000
16EFFC7710
9FFFFFFF90
AFFFFFFFA0
6EFFFFFE50
00DFFA0000
00DFFA0000
00DFFA0000
00DFFA0000
00DFFA0000
00DFFA0000
008FE50000
ENDCHAR
STARTCHAR g
ENCODING 103
SWIDTH 585 0
DWIDTH 12 0
BBX 11 16 0 -5
BITMAP
000277317830
007FFFFCFFD0
07FFFFFFFFE0
1EFFFEFFFFE0
5FFF602EFFE0
7FFF000AFFE0
6FFF401EFFE0
2FFFFCEFFFE0
08FFFFFFFFE0
00AFFFFEFFE0
00049958FFD0
0057101DFFC0
04FFEBDFFF70
08FFFFFFFC10
019FFFFFB100
000268730000
ENDCHAR
STARTCHAR h
ENCODING 104
SWIDTH 605 0
DWIDTH 12 0
BBX 12 16 0 0
BITMAP
036400000000
2FFF30000000
3FFF40000000
3FFF40000000
3FFF40000000
3FFF43762000
3FFFBFFFF600
3FFFFFFFFF50
3FFFFFFFFFD0
3FFFC21AFFF2
3FFF5004FFF4
3FFF4003FFF4
3FFF4003FFF4
3FFF4003FFF4
3FFF4003FFF4
0CFC1000CFC1
ENDCHAR
STARTCHAR i
ENCODING 105
SWIDTH 255 0
DWIDTH 5 0
BBX 5 16 0 0
BITMAP
036400
2FFF30
3FFF40
1CFD10
000000
047500
2FFF30
3FFF40
3FFF40
3FFF40
3FFF40
3FFF40
3FFF40
3FFF40
3FFF40
0CFC10
ENDCHAR
STARTCHAR j
ENCODING 106
SWIDTH 252 0
DWIDTH 5 0
BBX 8 21 -3 -5
BITMAP
00003640
0002FFF2
0003FFF3
0001CFC1
00000000
00005960
0002FFF3
0003FFF3
0003FFF4
0003FFF4
0003FFF4
0003FFF4
0003FFF4
0003FFF4
0003FFF4
0004FFF3
001AFFF2
4DFFFFC0
9FFFFE30
8FFFD300
17740000
ENDCHAR
STARTCHAR k
ENCODING 107
SWIDTH 536 0
DWIDTH 11 0
BBX 11 17 0 -1
BITMAP
047500000000
2FFF30000000
3FFF40000000
3FFF40000000
3FFF40000000
3FFF40010000
3FFF406EC100
3FFF48FFF800
3FFFCFFFF700
3FFFFFFF7000
3FFFFFF50000
3FFFFFFC2000
3FFFEFFFE300
3FFF5CFFFF30
3FFF41BFFF40
0CFC1009F800
000000001000
ENDCHAR
STARTCHAR l
ENCODING 108
SWIDTH 327 0
DWIDTH 7 0
BBX 7 16 0 0
BITMAP
04750000
2FFF3000
3FFF4000
3FFF4000
3FFF4000
3FFF4000
3FFF4000
3FFF4000
3FFF4000
3FFF4000
3FFF4000
3FFF5000
3FFF9400
1FFFFF20
0CFFFF30
03BEFD10
ENDCHAR
STARTCHAR m
ENCODING 109
SWIDTH 851 0
DWIDTH 17 0
BBX 17 11 0 0
BITMAP
058504861005861000
2FFF9FFFD3CFFFD100
3FFFFFFFFFFFFFF900
3FFFFFFFFFFFFFFE00
3FFFA19FFF919FFF20
3FFF504FFF505FFF30
3FFF504FFF404FFF30
3FFF504FFF404FFF30
3FFF504FFF404FFF30
3FFF403FFF404FFF30
0CFC101CFC101CFC10
ENDCHAR
STARTCHAR n
ENCODING 110
SWIDTH 606 0
DWIDTH 12 0
BBX 12 11 0 0
BITMAP
058604872000
2FFFAFFFF700
3FFFFFFFFF50
3FFFFFFFFFD0
3FFFB11AFFF3
3FFF5004FFF4
3FFF4003FFF5
3FFF4003FFF5
3FFF4003FFF5
3FFF4003FFF4
0BEC1000CEC1
ENDCHAR
STARTCHAR o
ENCODING 111
SWIDTH 600 0
DWIDTH 12 0
BBX 12 12 0 -1
BITMAP
00028BB83000
007FFFFFF700
07FFFFFFFF70
1EFFFDDFFFE1
5FFF7007FFF5
7FFF1001FFF7
6FFF4004FFF6
3FFFE77EFFF3
0AFFFFFFFFA0
01CFFFFFFD10
0008EFFE8100
000002200000
ENDCHAR
STARTCHAR p
ENCODING 112
SWIDTH 582 0
DWIDTH 12 0
BBX 12 16 0 -5
BITMAP
058505751000
2FFFCFFFD300
3FFFFFFFFE20
3FFFFFFFFFA0
3FFFB11BFFF0
3FFF5005FFF2
3FFF9009FFF1
3FFFFCCFFFB0
3FFFFFFFFF30
3FFFFFFFF500
3FFF58A92000
3FFF30000000
3FFF30000000
3FFF30000000
2FFF20000000
058500000000
ENDCHAR
STARTCHAR q
ENCODING 113
SWIDTH 582 0
DWIDTH 12 0
BBX 11 16 0 -5
BITMAP
000277317820
007FFFFCFFC0
06FFFFFFFFD0
1EFFFEFFFFD0
5FFF603EFFD0
7FFF000BFFD0
6FFF401EFFD0
2FFFFBEFFFD0
09FFFFFFFFD0
00AFFFFFFFD0
0005AA69FFD0
00000009FFD0
00000009FFD0
00000009FFD0
00000008FFC0
000000017830
ENDCHAR
STARTCHAR r
ENCODING 114
SWIDTH 457 0
DWIDTH 9 0
BBX 9 11 0 0
BITMAP
0586059820
2FFFCFFFC0
3FFFFFFFB0
3FFFFDDF40
3FFF800000
3FFF500000
3FFF500000
3FFF500000
3FFF500000
3FFF400000
1CFC100000
ENDCHAR
STARTCHAR s
ENCODING 115
SWIDTH 489 0
DWIDTH 10 0
BBX 10 12 0 -1
BITMAP
0048AA9400
07FFFFFFA0
1FFFFFFF90
2FFF315810
0FFFEB8300
09FFFFFF70
008EFFFFF1
067248FFF4
3FFEABFFF3
6FFFFFFFC0
06CFFFEA20
0001320000
ENDCHAR
STARTCHAR t
ENCODING 116
SWIDTH 449 0
DWIDTH 9 0
BBX 9 15 0 0
BITMAP
0002100000
00AFF60000
00DFF90000
00DFF90000
27EFFC7710
9FFFFFFF90
AFFFFFFFA0
6EFFFFFE50
00DFF90000
00DFF90000
00DFF90000
00CFFD5200
00AFFFFE10
003FFFFF10
0003BDFB00
ENDCHAR
STARTCHAR u
ENCODING 117
SWIDTH 606 0
DWIDTH 12 0
BBX 12 11 0 0
BITMAP
058600005860
2FFF4002FFF4
3FFF5003FFF5
3FFF5003FFF5
3FFF5003FFF5
3FFF5003FFF5
2FFF8006FFF5
0EFFFAAFFFF5
08FFFFFFFFF5
00BFFFFEFFF4
0007CEB2BEC1
ENDCHAR
STARTCHAR v
ENCODING 118
SWIDTH 638 0
DWIDTH 13 0
BBX 13 12 0 -1
BITMAP
05A3000005A300
7FFD00002FFF40
9FFF50009FFF50
2EFFD002FFFC00
07FFF60AFFF400
01DFFD3FFFA000
005FFFEFFF2000
000BFFFFF80000
0003FFFFD10000
00009FFF500000
00001CF9000000
00000010000000
ENDCHAR
STARTCHAR w
ENCODING 119
SWIDTH 793 0
DWIDTH 16 0
BBX 16 11 0 0
BITMAP
0693000760003950
9FFB009FF800DFF6
8FFF21FFFE04FFF6
2FFF86FFFF4AFFE1
0BFFDCFFFFAFFF90
05FFFFFFFFFFFF30
00EFFFFEFFFFFC00
008FFFF9BFFFF600
002FFFF35FFFE100
000AFFC00EFF9000
0003EE4005FD1000
ENDCHAR
STARTCHAR x
ENCODING 120
SWIDTH 567 0
DWIDTH 11 0
BBX 11 12 0 -1
BITMAP
059100007800
5FFD1009FFA0
9FFFD18FFFE0
1DFFFEFFFF40
02DFFFFFF500
002EFFFF6000
008FFFFFC100
08FFFFFFFC10
6FFFF7DFFFB0
9FFF602DFFE0
1CF50002DE40
001000000000
ENDCHAR
STARTCHAR y
ENCODING 121
SWIDTH 604 0
DWIDTH 12 0
BBX 12 16 0 -5
BITMAP
06A300002A70
8FFD0000BFFA
7FFF7003FFF9
1DFFE209FFF3
05FFFA1FFFB0
00BFFFBFFF40
003FFFFFFC00
0008FFFFF600
0001EFFFE000
00007FFF7000
0000BFFE1000
0003FFF90000
0009FFF20000
001FFFB00000
002FFF400000
000398000000
ENDCHAR
STARTCHAR z
ENCODING 122
SWIDTH 586 0
DWIDTH 12 0
BBX 12 11 0 0
BITMAP
048888888710
0EFFFFFFFFB0
1FFFFFFFFFD0
09EEEFFFFF50
00003DFFF500
0004EFFE4000
005FFFE30000
07FFFFA88840
4FFFFFFFFFF2
7FFFFFFFFFF3
1CFFFFFFFFC0
ENDCHAR
STARTCHAR braceleft
ENCODING 123
SWIDTH 381 0
DWIDTH 8 0
BBX 8 21 0 -5
BITMAP
00002650
0006FFF4
001EFFF3
005FFC40
006FF700
006FF700
006FF700
006FF700
009FF600
6EFFE100
AFFF8000
7FFFE100
009FF500
006FF600
006FF700
006FF700
006FF700
005FFB40
001EFFF3
0006FFF4
00003760
ENDCHAR
STARTCHAR bar
ENCODING 124
SWIDTH 217 0
DWIDTH 4 0
BBX 4 21 0 -5
BITMAP
0561
2FF7
3FF8
3FF8
3FF8
3FF8
3FF8
3FF8
3FF8
3FF8
3FF8
3FF8
3FF8
3FF8
3FF8
3FF8
3FF8
3FF8
3FF8
2FF7
0792
ENDCHAR
STARTCHAR braceright
ENCODING 125
SWIDTH 381 0
DWIDTH 8 0
BBX 8 21 0 -5
BITMAP
26500000
AFFC1000
9FFFA000
16EFE000
00DFF000
00DFF000
00DFF000
00DFF000
00BFF200
006FFFD2
000EFFF4
006FFFE2
00BFF300
00DFF000
00DFF000
00DFF000
00DFF000
15EFE000
9FFFA000
AFFD2000
27610000
ENDCHAR
STARTCHAR asciitilde
ENCODING 126
SWIDTH 651 0
DWIDTH 13 0
BBX 11 5 1 3
BITMAP
005871017300
1CFFFE7BFF30
BFFFFFFFFF40
DFFAEFFFF900
2B7019CA5000
ENDCHAR
STARTCHAR exclamdown
ENCODING 161
SWIDTH 268 0
DWIDTH 5 0
BBX 5 16 0 -5
BITMAP
003100
1DFF40
3FFF80
1FFF70
058610
000000
0ADC20
1FFF70
1FFF70
1FFF70
1FFF70
1FFF70
1FFF70
1FFF70
1FFF60
058710
ENDCHAR
STARTCHAR cent
ENCODING 162
SWIDTH 434 0
DWIDTH 9 0
BBX 9 16 0 -2
BITMAP
0000430000
0003FE0000
0004FF1000
0004FF1000
005DFFC400
07FFFFFF10
2FFFEEFC00
6FFB005100
7FF8000000
5FFE56B400
0DFFFFFF10
02DFFFFC00
0008FF6100
0004FF1000
0004FF0000
0001870000
ENDCHAR
STARTCHAR sterling
ENCODING 163
SWIDTH 675 0
DWIDTH 14 0
BBX 14 15 0 0
BITMAP
0000038AA83000
0002BFFFFFFA10
000CFFFFFFFF90
006FFFD9AEFFA0
00BFFC00019A20
00DFF600000000
27EFFA87200000
AFFFFFFFA00000
9FFFFFFF800000
025FFF43000000
002FFF20000000
007FFF44444420
02EFFFFFFFFFE1
05FFFFFFFFFFF2
01CFFFFFFFFFC0
ENDCHAR
STARTCHAR currency
ENCODING 164
SWIDTH 677 0
DWIDTH 14 0
BBX 13 16 0 0
BITMAP
03400000001500
4FF3000000AFC0
4FFEA8778BFFD0
0AFFFFFFFFFF30
01FFFFFFFFF900
08FFF978CFFF20
0DFF60000CFF60
0FFF000007FF90
1FFE000006FF90
0FFF200008FF80
0BFFB1005FFF40
04FFFFEFFFFD00
04FFFFFFFFFB00
1EFFFFEFFFFF80
6FF9200014EFE0
1AB10000004C50
ENDCHAR
STARTCHAR yen
ENCODING 165
SWIDTH 677 0
DWIDTH 14 0
BBX 14 15 0 0
BITMAP
05A30000007920
6FFD000005FFE1
8FFF80001EFFF2
1DFFF2009FFF80
04FFFB03FFFC00
009FFF6CFFF300
001DFFFFFF8000
0017FFFFFE3000
00BFFFFFFFF500
009EEFFFFED300
00000FFF800000
006BBFFFDBA200
00CFFFFFFFF600
00266FFFA65100
000009ED300000
ENDCHAR
STARTCHAR brokenbar
ENCODING 166
SWIDTH 215 0
DWIDTH 4 0
BBX 4 21 0 -5
BITMAP
0560
2FF6
3FF7
3FF8
3FF8
3FF8
3FF8
3FF8
2FF7
0781
0000
0791
2FF7
3FF8
3FF8
3FF8
3FF8
3FF8
3FF7
2FF6
0560
ENDCHAR
STARTCHAR section
ENCODING 167
SWIDTH 560 0
DWIDTH 11 0
BBX 11 21 0 -5
BITMAP
000145410000
007EFFFFA100
07FFFFFFFB00
0EFFFCFFFA00
3FFF402AA100
2FFF70000000
0DFFFEA61000
06FFFFFFF700
0CFFFFFFFF40
2FFF95AFFF90
3FFF300CFFA0
1FFFD75EFF80
0AFFFFFFFF30
019FFFFFFE10
00027BFFFF70
0360001DFFA0
2EFC100DFFA0
6FFFEACFFF60
1CFFFFFFFD10
01AFFFFFB100
000267620000
ENDCHAR
STARTCHAR dieresis
ENCODING 168
SWIDTH 489 0
DWIDTH 10 0
BBX 10 5 0 11
BITMAP
0365001661
2FFF40BFFA
3FFF50CFFC
1DFE208FF7
0010000110
ENDCHAR
STARTCHAR copyright
ENCODING 169
SWIDTH 711 0
DWIDTH 14 0
BBX 14 14 0 1
BITMAP
00039CDEDA5000
009FFECCDFFB10
08FB3034129FA0
1ED13DFFE70BF3
4F82EFEDFB04F7
6F58FC103101FA
7F4AF7000000FB
7F48FB001001FA
4F73FFCAEA03F8
1EC05EFFFA09F4
08F91167407FC0
00BFFBAABEFD20
0006CEFFFC7100
00000011000000
ENDCHAR
STARTCHAR ordfeminine
ENCODING 170
SWIDTH 445 0
DWIDTH 9 0
BBX 9 9 0 6
BITMAP
0003203200
02DFFCFF10
0DFFFFFF10
5FF95DFF10
7FF108FF10
5FF95EFF10
0DFFFFFF10
02DFFCFF10
0003203200
ENDCHAR
STARTCHAR guillemotleft
ENCODING 171
SWIDTH 668 0
DWIDTH 13 0
BBX 13 11 0 0
BITMAP
00001500001500
0002DFA002DFA0
002DFFE02DFFE0
02DFFE32DFFE30
2DFFE32DFFE300
9FFF40AFFF3000
6FFFA06FFF9000
08FFFA08FFF900
008FFFA08FFF90
0008FFE008FFE0
00007D40007D40
ENDCHAR
STARTCHAR logicalnot
ENCODING 172
SWIDTH 526 0
DWIDTH 11 0
BBX 11 7 0 2
BITMAP
4CCCCCCCCA00
AFFFFFFFFF30
AFFFFFFFFF30
29AAAAACFF30
00000007FF30
00000006FF20
000000017600
ENDCHAR
STARTCHAR registered
ENCODING 174
SWIDTH 711 0
DWIDTH 14 0
BBX 14 14 0 1
BITMAP
00039CDEDA5000
009FFECCDFFB10
08FB4555229FA0
1ED17FFFF60BF3
4F808FDBFF24F7
6F508F80DF31FA
7F408FEDFE10FB
7F408FFFFA01FA
4F708F95FE14F8
1EC07F70BF4AF4
08F91300148FC0
00BFFBAABEFD20
0006CEFFFC7100
00000011000000
ENDCHAR
STARTCHAR degree
ENCODING 176
SWIDTH 407 0
DWIDTH 8 0
BBX 8 8 0 8
BITMAP
00145100
04EFFE50
1EFFFFF3
6FE21DF8
7FD00BF9
4FFA9FF6
0AFFFFC1
006BC700
ENDCHAR
STARTCHAR plusminus
ENCODING 177
SWIDTH 505 0
DWIDTH 10 0
BBX 10 11 0 0
BITMAP
0002CC3000
0007FF8000
19ACFFDA92
7FFFFFFFF8
6FFFFFFFF8
055AFFB551
0006FF7000
0000661000
09BBBBBB91
3FFFFFFFF4
1DFFFFFFE2
ENDCHAR
STARTCHAR twosuperior
ENCODING 178
SWIDTH 455 0
DWIDTH 9 0
BBX 9 11 0 4
BITMAP
007DFD7000
09FFFFF800
3FFFEFFF20
7FF90AFF60
6FF50CFF50
0542BFFE10
007EFFF500
0AFFFF8310
5FFFFFFFA0
6FFFFFFFB0
08AAAAAA50
ENDCHAR
STARTCHAR threesuperior
ENCODING 179
SWIDTH 457 0
DWIDTH 9 0
BBX 9 11 0 4
BITMAP
006CFD8100
07FFFFFC00
0FFFBFFF40
0AF709FF50
0013AEFE10
0008FFFD10
28837BFF70
7FF806FF90
3FFFDFFF60
09FFFFFB00
006ACB7000
ENDCHAR
STARTCHAR acute
ENCODING 180
SWIDTH 605 0
DWIDTH 12 0
BBX 6 5 3 11
BITMAP
000262
28CFFA
EFFFFD
CFFE93
384000
ENDCHAR
STARTCHAR mu
ENCODING 181
SWIDTH 601 0
DWIDTH 12 0
BBX 12 16 0 -5
BITMAP
058500006850
2FFF3003FFF2
3FFF4004FFF3
3FFF4004FFF3
3FFF4004FFF3
3FFF4004FFF3
3FFF7008FFF3
3FFFFAAFFFF3
3FFFFFFFFFF3
3FFFFFFEFFF3
3FFFACB2ADA0
3FFF40000000
3FFF40000000
3FFF40000000
2FFF30000000
036300000000
ENDCHAR
STARTCHAR paragraph
ENCODING 182
SWIDTH 614 0
DWIDTH 12 0
BBX 12 18 0 -5
BITMAP
002344444420
0AFFFFFFFFE0
3FFFFFFCEFF2
6FFFFFE09FF2
6FFFFFE09FF2
4FFFFFE09FF2
0DFFFFE09FF2
028AEFE09FF2
0000DFE09FF2
0000DFE09FF2
0000DFE09FF2
0000DFE09FF2
0000DFE09FF2
0000DFE09FF2
0000DFE09FF2
0000DFE09FF2
0000CFD09FF1
000049502970
ENDCHAR
STARTCHAR periodcentered
ENCODING 183
SWIDTH 237 0
DWIDTH 5 0
BBX 5 4 0 4
BITMAP
3EFC10
7FFF30
6FFF30
19A700
ENDCHAR
STARTCHAR cedilla
ENCODING 184
SWIDTH 559 0
DWIDTH 11 0
BBX 5 5 3 -4
BITMAP
168200
5FFE20
068F60
5FFF30
2BC500
ENDCHAR
STARTCHAR onesuperior
ENCODING 185
SWIDTH 321 0
DWIDTH 6 0
BBX 6 11 0 4
BITMAP
001AD4
01CFF9
2DFFF9
AFFFF9
4FFFF9
015FF9
005FF9
005FF9
005FF9
004FF9
0019A3
ENDCHAR
STARTCHAR ordmasculine
ENCODING 186
SWIDTH 439 0
DWIDTH 9 0
BBX 9 9 0 6
BITMAP
0001210000
01AFFF8000
0CFFFFF900
4FFA5CFF10
7FF104FF40
6FF508FF30
1EFFFFFD00
04EFFFD200
0016861000
ENDCHAR
STARTCHAR guillemotright
ENCODING 187
SWIDTH 669 0
DWIDTH 13 0
BBX 13 11 0 0
BITMAP
03300003300000
5FF6005FF60000
9FFF609FFF6000
1BFFF61BFFF600
01BFFF61BFFF50
001CFFF01CFFE0
004FFFC05FFFC0
04FFFC15FFFC10
4FFFC14FFFC100
9FFC109FFC1000
1BB1001BB10000
ENDCHAR
STARTCHAR onequarter
ENCODING 188
SWIDTH 786 0
DWIDTH 16 0
BBX 14 17 1 -1
BITMAP
00340000075000
05FF20003FC000
6FFF3000AF4000
EFFF3003FB0000
49FF300BF30000
01FF304FA00000
01FF30CF300000
01FF35F9251361
01DE2DF2BF8BF7
00006F90EF6CF8
0000DE14FF2CF8
0007F807FF8EF8
001EE10AFFFFF8
008F7004AAAEF8
01ED0000000CF8
08F600000008E5
02700000000000
ENDCHAR
STARTCHAR onehalf
ENCODING 189
SWIDTH 804 0
DWIDTH 16 0
BBX 14 17 1 -1
BITMAP
00340000075000
05FF20003FC000
6FFF3000AF4000
EFFF3003FB0000
49FF300BF30000
01FF304FA00000
01FF30CF300000
01FF35F9047400
01DE2DF2BFFF90
00006F96FFEFF4
0000DE1AFB0DF8
0007F805B55FF6
001EE1002AFFC0
008F7003EFFE62
01ED0009FFFFFC
08F60006EFFFFA
02700000000000
ENDCHAR
STARTCHAR threequarters
ENCODING 190
SWIDTH 842 0
DWIDTH 17 0
BBX 15 17 1 -1
BITMAP
0035200000660000
1CFFF60001ED0000
8FEDFF2009F60000
4D52FF302FD00000
008EFC009F500000
246CFF32FC000000
EF50EF6AF4000000
BFFEFF5FB1512620
2CFFE5BF39FAAF90
002204FA0DF7AFA0
00000CF32FF4AFA0
00005FA05FF9DFA0
0000DF208FFFFFA0
0006F90039AADFA0
000DE1000000AFA0
006F800000007E70
0017100000000000
ENDCHAR
STARTCHAR questiondown
ENCODING 191
SWIDTH 511 0
DWIDTH 10 0
BBX 10 16 0 -5
BITMAP
0001884000
0009FFE000
000AFFF100
0006FFB000
0000120000
0000451000
0006FFA000
008FFFB000
0AFFFF5000
3FFFA30000
7FFB000A92
7FFC006FFD
3FFFDCFFFA
09FFFFFFE2
009FFFFD40
0002664000
ENDCHAR
STARTCHAR Agrave
ENCODING 192
SWIDTH 765 0
DWIDTH 15 0
BBX 15 21 0 -1
BITMAP
0000020000000000
00007FD940000000
0000CFFFFD000000
00006DFFFE000000
00000037C7000000
0000003960000000
000001EFF5000000
000008FFFC000000
00001EFFFF400000
00007FFFFFC00000
0001EFFFFFF40000
0007FFFAFFFB0000
000DFFE1BFFF3000
006FFF915FFFB000
00DFFFFFFFFFF300
06FFFFFFFFFFFA00
0DFFFDDDDDEFFF20
5FFF9000004FFF90
AFFF2000000CFFE0
3DF900000004FE60
0020000000002100
ENDCHAR
STARTCHAR Aacute
ENCODING 193
SWIDTH 765 0
DWIDTH 15 0
BBX 15 21 0 -1
BITMAP
0000000015400000
0000016BFFE00000
000009FFFFF20000
000007FFFB500000
0000018510000000
0000003960000000
000001EFF5000000
000008FFFC000000
00001EFFFF400000
00007FFFFFC00000
0001EFFFFFF40000
0007FFFAFFFB0000
000DFFE1BFFF3000
006FFF915FFFB000
00DFFFFFFFFFF300
06FFFFFFFFFFFA00
0DFFFDDDDDEFFF20
5FFF9000004FFF90
AFFF2000000CFFE0
3DF900000004FE60
0020000000002100
ENDCHAR
STARTCHAR Acircumflex
ENCODING 194
SWIDTH 765 0
DWIDTH 15 0
BBX 15 21 0 -1
BITMAP
0000002640000000
00007CFFFE920000
0004FFFFFFF90000
0001EFD7BFF40000
0000230002400000
0000003960000000
000001EFF5000000
000008FFFC000000
00001EFFFF400000
00007FFFFFC00000
0001EFFFFFF40000
0007FFFAFFFB0000
000DFFE1BFFF3000
006FFF915FFFB000
00DFFFFFFFFFF300
06FFFFFFFFFFFA00
0DFFFDDDDDEFFF20
5FFF9000004FFF90
AFFF2000000CFFE0
3DF900000004FE60
0020000000002100
ENDCHAR
STARTCHAR Atilde
ENCODING 195
SWIDTH 765 0
DWIDTH 15 0
BBX 15 21 0 -1
BITMAP
0000046302500000
00009FFFADF70000
0003FFFFFFF50000
0001DD4BFF800000
0000010021000000
0000003960000000
000001EFF5000000
000008FFFC000000
00001EFFFF400000
00007FFFFFC00000
0001EFFFFFF40000
0007FFFAFFFB0000
000DFFE1BFFF3000
006FFF915FFFB000
00DFFFFFFFFFF300
06FFFFFFFFFFFA00
0DFFFDDDDDEFFF20
5FFF9000004FFF90
AFFF2000000CFFE0
3DF900000004FE60
0020000000002100
ENDCHAR
STARTCHAR Adieresis
ENCODING 196
SWIDTH 765 0
DWIDTH 15 0
BBX 15 21 0 -1
BITMAP
0001661004630000
000AFFA04FFF2000
000CFFC05FFF3000
0007FF802EFD1000
0000110000100000
0000003960000000
000001EFF5000000
000008FFFC000000
00001EFFFF400000
00007FFFFFC00000
0001EFFFFFF40000
0007FFFAFFFB0000
000DFFE1BFFF3000
006FFF915FFFB000
00DFFFFFFFFFF300
06FFFFFFFFFFFA00
0DFFFDDDDDEFFF20
5FFF9000004FFF90
AFFF2000000CFFE0
3DF900000004FE60
0020000000002100
ENDCHAR
STARTCHAR Aring
ENCODING 197
SWIDTH 765 0
DWIDTH 15 0
BBX 15 20 0 -1
BITMAP
0000001530000000
000004EFF7000000
00000CA17F100000
00000E803F300000
000009EADD000000
000001FFF6000000
000008FFFC000000
00001EFFFF400000
00007FFFFFB00000
0001EFFFFFF40000
0007FFFAFFFB0000
000DFFE1BFFF3000
006FFF915FFFB000
00DFFFFFFFFFF300
06FFFFFFFFFFFA00
0DFFFDDDDDEFFF20
5FFF9000004FFF90
AFFF2000000CFFE0
3DF900000004FE60
0020000000002100
ENDCHAR
STARTCHAR AE
ENCODING 198
SWIDTH 1148 0
DWIDTH 23 0
BBX 23 16 0 -1
BITMAP
000000000019AAAAAAAAA910
0000000001CFFFFFFFFFFF60
000000000BFFFFFFFFFFFF60
00000000AFFFFFEDDDDDDB20
00000009FFFFFF9000000000
0000007FFFFFFFA222200000
000006FFFF6EFFFFFFFD1000
00005FFFF70EFFFFFFFF3000
0003EFFF900EFFFFFFFF2000
003EFFFFEEEFFFB666640000
02DFFFFFFFFFFF9000000000
1DFFFFFFFFFFFFC888888700
BFFFD100000EFFFFFFFFFF50
DFFE2000000DFFFFFFFFFF60
4FE300000005EFFFFFFFFD20
011000000000000000000000
ENDCHAR
STARTCHAR Ccedilla
ENCODING 199
SWIDTH 679 0
DWIDTH 14 0
BBX 13 19 0 -4
BITMAP
000005ACCA6100
0004DFFFFFFE50
007FFFFFFFFFF0
05FFFFFCCEFFC0
0DFFF910018B20
3FFFA000000000
6FFF3000000000
7FFF1000000000
6FFF2000000000
4FFF7000000000
0EFFE400003600
07FFFFB76AFF80
00BFFFFFFFFFF0
0009FFFFFFFF90
00003AEFFFB400
000000BFF80000
00000046DD0000
0000009EFB0000
0000005CA20000
ENDCHAR
STARTCHAR Egrave
ENCODING 200
SWIDTH 638 0
DWIDTH 13 0
BBX 13 20 0 0
BITMAP
00001100000000
0000DFB7200000
0003FFFFF70000
0001AEFFF80000
00000049C20000
06AAAAAAAAA700
2FFFFFFFFFFF30
3FFFFFFFFFFF30
3FFFEDDDDDDB00
3FFF5000000000
3FFF6111100000
3FFFFFFFFB0000
3FFFFFFFFF0000
3FFFFFFFFE0000
3FFF9777630000
3FFF5000000000
3FFFB888888600
3FFFFFFFFFFF30
3FFFFFFFFFFF40
0CFFFFFFFFFC10
ENDCHAR
STARTCHAR Eacute
ENCODING 201
SWIDTH 638 0
DWIDTH 13 0
BBX 13 20 0 0
BITMAP
00000002620000
000028CFFA0000
0000EFFFFD0000
0000CFFE930000
00003840000000
06AAAAAAAAA700
2FFFFFFFFFFF30
3FFFFFFFFFFF30
3FFFEDDDDDDB00
3FFF5000000000
3FFF6111100000
3FFFFFFFFB0000
3FFFFFFFFF0000
3FFFFFFFFE0000
3FFF9777630000
3FFF5000000000
3FFFB888888600
3FFFFFFFFFFF30
3FFFFFFFFFFF40
0CFFFFFFFFFC10
ENDCHAR
STARTCHAR Ecircumflex
ENCODING 202
SWIDTH 638 0
DWIDTH 13 0
BBX 13 20 0 0
BITMAP
00000363000000
0018DFFFD81000
007FFFFFFF6000
003FFC7CFE2000
00022000330000
06AAAAAAAAA700
2FFFFFFFFFFF30
3FFFFFFFFFFF30
3FFFEDDDDDDB00
3FFF5000000000
3FFF6111100000
3FFFFFFFFB0000
3FFFFFFFFF0000
3FFFFFFFFE0000
3FFF9777630000
3FFF5000000000
3FFFB888888600
3FFFFFFFFFFF30
3FFFFFFFFFFF40
0CFFFFFFFFFC10
ENDCHAR
STARTCHAR Edieresis
ENCODING 203
SWIDTH 638 0
DWIDTH 13 0
BBX 13 20 0 0
BITMAP
00266100563000
00CFF906FFE000
00DFFA07FFF100
009FF604FFC000
00010000010000
06AAAAAAAAA700
2FFFFFFFFFFF30
3FFFFFFFFFFF30
3FFFEDDDDDDB00
3FFF5000000000
3FFF6111100000
3FFFFFFFFB0000
3FFFFFFFFF0000
3FFFFFFFFE0000
3FFF9777630000
3FFF5000000000
3FFFB888888600
3FFFFFFFFFFF30
3FFFFFFFFFFF40
0CFFFFFFFFFC10
ENDCHAR
STARTCHAR Igrave
ENCODING 204
SWIDTH 267 0
DWIDTH 5 0
BBX 6 20 -1 0
BITMAP
020000
9FD830
EFFFFB
7DFFFC
0038C5
005981
01FFF6
01FFF7
01FFF7
01FFF7
01FFF7
01FFF7
01FFF7
01FFF7
01FFF7
01FFF7
01FFF7
01FFF7
01FFF6
00BFD2
ENDCHAR
STARTCHAR Iacute
ENCODING 205
SWIDTH 269 0
DWIDTH 5 0
BBX 7 20 0 0
BITMAP
00014500
05AEFF20
7FFFFF40
5FFFB600
08610000
05981000
1FFF6000
1FFF7000
1FFF7000
1FFF7000
1FFF7000
1FFF7000
1FFF7000
1FFF7000
1FFF7000
1FFF7000
1FFF7000
1FFF7000
1FFF7000
0AFD2000
ENDCHAR
STARTCHAR Icircumflex
ENCODING 206
SWIDTH 270 0
DWIDTH 5 0
BBX 9 20 -2 0
BITMAP
0002640000
07CFFFE920
3FFFFFFF90
0DFD7BFF50
0130002400
0005981000
001FFF6000
001FFF7000
001FFF7000
001FFF7000
001FFF7000
001FFF7000
001FFF7000
001FFF7000
001FFF7000
001FFF7000
001FFF7000
001FFF7000
001FFF7000
000AFD2000
ENDCHAR
STARTCHAR Idieresis
ENCODING 207
SWIDTH 268 0
DWIDTH 5 0
BBX 10 20 -2 0
BITMAP
1661004640
AFFB04FFF2
BFFC05FFF3
7FF802EFD1
0110000100
0005A81000
000FFF7000
001FFF7000
001FFF8000
001FFF8000
001FFF8000
001FFF8000
001FFF8000
001FFF8000
001FFF8000
001FFF8000
001FFF8000
001FFF8000
000FFF7000
000AFD3000
ENDCHAR
STARTCHAR Eth
ENCODING 208
SWIDTH 775 0
DWIDTH 16 0
BBX 15 15 0 0
BITMAP
0039AAAA96100000
00BFFFFFFFF80000
00CFFFFFFFFFC100
00CFFFDDEFFFFA00
00CFFC0006EFFF40
00CFFC00004FFFA0
2AEFFEA2000BFFD0
7FFFFFF70009FFF0
4EFFFFE4000AFFE0
00CFFC00001EFFB0
00CFFC0002CFFF60
00CFFD89AEFFFD00
00CFFFFFFFFFE200
00BFFFFFFFFD2000
006EFFFFEB600000
ENDCHAR
STARTCHAR Ntilde
ENCODING 209
SWIDTH 720 0
DWIDTH 14 0
BBX 14 20 0 0
BITMAP
00001661042000
0002DFFD9FE100
000AFFFFFFD000
0006F86EFD3000
00001000200000
06970000004982
2FFF900000DFF8
3FFFF50000EFF9
3FFFFE2000EFF9
3FFFFFC000EFF9
3FFFFFF900EFF9
3FFFEFFF50EFF9
3FFF6EFFE2EFF9
3FFF54FFFCEFF9
3FFF508FFFFFF9
3FFF500BFFFFF9
3FFF5002EFFFF9
3FFF50004FFFF9
3FFF500008FFF9
0BFC100000AFE4
ENDCHAR
STARTCHAR Ograve
ENCODING 210
SWIDTH 775 0
DWIDTH 16 0
BBX 15 21 0 -1
BITMAP
0000020000000000
00004FEA51000000
00009FFFFE200000
00004CFFFF200000
00000026B9000000
000017BCB9400000
0006EFFFFFFB1000
007FFFFFFFFFD100
04FFFFEBCFFFFC00
0CFFF80003DFFF50
2FFFA000003FFFA0
6FFF3000000BFFD0
7FFF10000009FFF0
7FFF20000009FFE0
4FFF7000000DFFB0
1EFFE300009FFF70
08FFFE856CFFFE10
00CFFFFFFFFFF500
001BFFFFFFFF6000
00006DFFFFA30000
0000001331000000
ENDCHAR
STARTCHAR Oacute
ENCODING 211
SWIDTH 775 0
DWIDTH 16 0
BBX 15 21 0 -1
BITMAP
0000000015300000
0000017BFFD00000
00000BFFFFF10000
000008FFEA500000
0000018510000000
000017BCB9400000
0006EFFFFFFB1000
007FFFFFFFFFD100
04FFFFEBCFFFFC00
0CFFF80003DFFF50
2FFFA000003FFFA0
6FFF3000000BFFD0
7FFF10000009FFF0
7FFF20000009FFE0
4FFF7000000DFFB0
1EFFE300009FFF70
08FFFE856CFFFE10
00CFFFFFFFFFF500
001BFFFFFFFF6000
00006DFFFFA30000
0000001331000000
ENDCHAR
STARTCHAR Ocircumflex
ENCODING 212
SWIDTH 775 0
DWIDTH 16 0
BBX 15 21 0 -1
BITMAP
0000002640000000
00006CFFFEA30000
0002FFFFFFFB0000
0000CFD8AFF60000
0000130002400000
000017BCB9400000
0006EFFFFFFB1000
007FFFFFFFFFD100
04FFFFEBCFFFFC00
0CFFF80003DFFF50
2FFFA000003FFFA0
6FFF3000000BFFD0
7FFF10000009FFF0
7FFF20000009FFE0
4FFF7000000DFFB0
1EFFE300009FFF70
08FFFE856CFFFE10
00CFFFFFFFFFF500
001BFFFFFFFF6000
00006DFFFFA30000
0000001331000000
ENDCHAR
STARTCHAR Otilde
ENCODING 213
SWIDTH 775 0
DWIDTH 16 0
BBX 15 21 0 -1
BITMAP
0000016610520000
00002EFFD9FE1000
0000AFFFFFFD0000
00006F76EFD30000
0000010002000000
000017BCB9400000
0006EFFFFFFB1000
007FFFFFFFFFD100
04FFFFEBCFFFFC00
0CFFF80003DFFF50
2FFFA000003FFFA0
6FFF3000000BFFD0
7FFF10000009FFF0
7FFF20000009FFE0
4FFF7000000DFFB0
1EFFE300009FFF70
08FFFE856CFFFE10
00CFFFFFFFFFF500
001BFFFFFFFF6000
00006DFFFFA30000
0000001331000000
ENDCHAR
STARTCHAR Odieresis
ENCODING 214
SWIDTH 775 0
DWIDTH 16 0
BBX 15 21 0 -1
BITMAP
0001661005630000
000BFFA05FFF1000
000CFFB06FFF2000
0008FF703EFD0000
0000110000100000
000017BCB9400000
0006EFFFFFFB1000
007FFFFFFFFFD100
04FFFFEBCFFFFC00
0CFFF80003DFFF50
2FFFA000003FFFA0
6FFF3000000BFFD0
7FFF10000009FFF0
7FFF20000009FFE0
4FFF7000000DFFB0
1EFFE300009FFF70
08FFFE856CFFFE10
00CFFFFFFFFFF500
001BFFFFFFFF6000
00006DFFFFA30000
0000001331000000
ENDCHAR
STARTCHAR multiply
ENCODING 215
SWIDTH 521 0
DWIDTH 10 0
BBX 10 10 0 0
BITMAP
09D4001AD2
6FFF41CFFC
3EFFECFFF8
04EFFFFF90
005FFFFB00
01CFFFFE40
0CFFFFFFF4
6FFF94EFFC
2EF9004EF7
0240000240
ENDCHAR
STARTCHAR Oslash
ENCODING 216
SWIDTH 775 0
DWIDTH 16 0
BBX 15 18 0 -2
BITMAP
0000000001860000
000017BCCBFFB000
0006EFFFFFFFA000
007FFFFFFFFFD100
04FFFFEBFFFFFB00
0CFFF806FFFFFF50
2FFFA00DFFDFFFA0
6FFF305FFF5BFFD0
7FFF10CFFC09FFF0
6FFF35FFF509FFE0
4FFF7CFFD00EFFC0
0EFFFFFF609FFF70
07FFFFFF6CFFFE10
00CFFFFFFFFFF500
001DFFFFFFFF6000
000FFFFFFFA30000
0007EE2331000000
0000010000000000
ENDCHAR
STARTCHAR Ugrave
ENCODING 217
SWIDTH 726 0
DWIDTH 15 0
BBX 14 21 0 -1
BITMAP
00002000000000
0007FD94000000
000BFFFFD00000
0006DFFFE00000
0000027C700000
07A80000003993
2FFF400000CFFA
3FFF500000CFFB
3FFF500000CFFB
3FFF500000CFFB
3FFF500000CFFB
3FFF500000CFFB
3FFF500000CFFB
3FFF600000DFFA
1FFF900001FFF9
0CFFE10008FFF5
06FFFD759FFFE0
00CFFFFFFFFF60
002DFFFFFFF800
00019EFFFC5000
00000023100000
ENDCHAR
STARTCHAR Uacute
ENCODING 218
SWIDTH 726 0
DWIDTH 15 0
BBX 14 21 0 -1
BITMAP
00000000153000
0000017BFFD000
00000BFFFFF100
000008FFEA5000
00000185100000
07A80000003993
2FFF400000CFFA
3FFF500000CFFB
3FFF500000CFFB
3FFF500000CFFB
3FFF500000CFFB
3FFF500000CFFB
3FFF500000CFFB
3FFF600000DFFA
1FFF900001FFF9
0CFFE10008FFF5
06FFFD759FFFE0
00CFFFFFFFFF60
002DFFFFFFF800
00019EFFFC5000
00000023100000
ENDCHAR
STARTCHAR Ucircumflex
ENCODING 219
SWIDTH 726 0
DWIDTH 15 0
BBX 14 21 0 -1
BITMAP
00000036300000
00018DFFFD8100
0006FFFFFFF700
0002EFC7CFF200
00002300033000
07A80000003993
2FFF400000CFFA
3FFF500000CFFB
3FFF500000CFFB
3FFF500000CFFB
3FFF500000CFFB
3FFF500000CFFB
3FFF500000CFFB
3FFF600000DFFA
1FFF900001FFF9
0CFFE10008FFF5
06FFFD759FFFE0
00CFFFFFFFFF60
002DFFFFFFF800
00019EFFFC5000
00000023100000
ENDCHAR
STARTCHAR Udieresis
ENCODING 220
SWIDTH 726 0
DWIDTH 15 0
BBX 14 21 0 -1
BITMAP
00036400166100
002FFF40BFFA00
003FFF50CFFB00
001DFE208FF700
00001000011000
07A80000003993
2FFF400000CFFA
3FFF500000CFFB
3FFF500000CFFB
3FFF500000CFFB
3FFF500000CFFB
3FFF500000CFFB
3FFF500000CFFB
3FFF600000DFFA
1FFF900001FFF9
0CFFE10008FFF5
06FFFD759FFFE0
00CFFFFFFFFF60
002DFFFFFFF800
00019EFFFC5000
00000023100000
ENDCHAR
STARTCHAR Yacute
ENCODING 221
SWIDTH 686 0
DWIDTH 14 0
BBX 14 20 0 0
BITMAP
00000001540000
000016BFFE0000
0000AFFFFF2000
00008FFFB50000
00001851000000
07C40000008C40
8FFE100004FFF3
7FFFA0001DFFF3
1DFFF4008FFF90
04FFFD03FFFD10
008FFF8CFFF400
001DFFFFFF9000
0004FFFFFD1000
00008FFFF40000
00001EFFB00000
00000EFFA00000
00000EFFA00000
00000EFFA00000
00000EFF900000
000009FF500000
ENDCHAR
STARTCHAR Thorn
ENCODING 222
SWIDTH 634 0
DWIDTH 13 0
BBX 13 15 0 0
BITMAP
06980000000000
2FFF4000000000
3FFFBAA9500000
3FFFFFFFFD3000
3FFFFFFFFFE200
3FFFEEEFFFFA00
3FFF5002CFFF00
3FFF50006FFF20
3FFF50009FFF10
3FFFB88BFFFC00
3FFFFFFFFFF500
3FFFFFFFFF7000
3FFFFFFEA30000
3FFF5000000000
0BEC1000000000
ENDCHAR
STARTCHAR germandbls
ENCODING 223
SWIDTH 633 0
DWIDTH 13 0
BBX 13 16 0 -1
BITMAP
003AEFFEA30000
06FFFFFFFE1000
0EFFFFFFFF5000
2FFF901FFF4000
3FFF408FFE0000
3FFF42FFF50000
3FFF46FFC00000
3FFF45FFF70000
3FFF40CFFFA100
3FFF401AFFF900
3FFF40006FFF10
3FFF41724FFF20
3FFF48FFFFFF00
3FFF4BFFFFFA00
2FFF35DFFE9100
06970000000000
ENDCHAR
STARTCHAR agrave
ENCODING 224
SWIDTH 596 0
DWIDTH 12 0
BBX 12 16 0 0
BITMAP
000163000000
0007FFD93000
000AFFFFF200
00028DFFE000
000000375000
000167406840
006EFFFCFFF1
05FFFFFFFFF2
1EFFFFFFFFF2
5FFF903EFFF2
7FFF1008FFF2
6FFF400BFFF2
3FFFE9BFFFF2
0AFFFFFFFFF2
01CFFFFFFFF2
0018DEB4CEB0
ENDCHAR
STARTCHAR aacute
ENCODING 225
SWIDTH 596 0
DWIDTH 12 0
BBX 12 16 0 0
BITMAP
000000045000
00005AEFF300
0006FFFFF600
0004FFFC7100
000076200000
000167406840
006EFFFCFFF1
05FFFFFFFFF2
1EFFFFFFFFF2
5FFF903EFFF2
7FFF1008FFF2
6FFF400BFFF2
3FFFE9BFFFF2
0AFFFFFFFFF2
01CFFFFFFFF2
0018DEB4CEB0
ENDCHAR
STARTCHAR acircumflex
ENCODING 226
SWIDTH 596 0
DWIDTH 12 0
BBX 12 16 0 0
BITMAP
000003630000
0018DFFFD810
006FFFFFFF70
002EFC7CFF20
000230003300
000167406840
006EFFFCFFF1
05FFFFFFFFF2
1EFFFFFFFFF2
5FFF903EFFF2
7FFF1008FFF2
6FFF400BFFF2
3FFFE9BFFFF2
0AFFFFFFFFF2
01CFFFFFFFF2
0018DEB4CEB0
ENDCHAR
STARTCHAR atilde
ENCODING 227
SWIDTH 596 0
DWIDTH 12 0
BBX 12 16 0 0
BITMAP
000046202400
000BFFF9EF50
006FFFFFFF30
003EB4CFE600
000100021000
000167406840
006EFFFCFFF1
05FFFFFFFFF2
1EFFFFFFFFF2
5FFF903EFFF2
7FFF1008FFF2
6FFF400BFFF2
3FFFE9BFFFF2
0AFFFFFFFFF2
01CFFFFFFFF2
0018DEB4CEB0
ENDCHAR
STARTCHAR adieresis
ENCODING 228
SWIDTH 596 0
DWIDTH 12 0
BBX 12 16 0 0
BITMAP
002660005620
00DFF707FFD0
00EFF909FFF0
00AFF505FFB0
000100000100
000167406840
006EFFFCFFF1
05FFFFFFFFF2
1EFFFFFFFFF2
5FFF903EFFF2
7FFF1008FFF2
6FFF400BFFF2
3FFFE9BFFFF2
0AFFFFFFFFF2
01CFFFFFFFF2
0018DEB4CEB0
ENDCHAR
STARTCHAR aring
ENCODING 229
SWIDTH 596 0
DWIDTH 12 0
BBX 12 15 0 0
BITMAP
00000AEB1000
00006C2A7000
00006C2A7000
00000AFB1000
000167406840
006EFFFCFFF1
05FFFFFFFFF2
1EFFFFFFFFF2
5FFF903EFFF2
7FFF1008FFF2
6FFF400BFFF2
3FFFE9BFFFF2
0AFFFFFFFFF2
01CFFFFFFFF2
0018DEB4CEB0
ENDCHAR
STARTCHAR ae
ENCODING 230
SWIDTH 910 0
DWIDTH 18 0
BBX 18 12 0 -1
BITMAP
00169A940027996100
05EFFFFFB9FFFFFE50
2FFFFFFFFFFFFFFFE2
1EFFD9DFFFFE88FFF8
03D9102FFFF400CFFA
0047974DFFFEEFFFF7
1CFFFFFFFFFDCCCC91
6FFC445CFFF7001420
6FFC448FFFFFEDFFD0
3FFFFFFFBEFFFFFFF2
06EFFFD602AEFFFB50
000221000000210000
ENDCHAR
STARTCHAR ccedilla
ENCODING 231
SWIDTH 524 0
DWIDTH 10 0
BBX 10 15 0 -4
BITMAP
00028BA830
007FFFFFF7
07FFFFFFFE
1FFFFEEFF8
5FFFA00780
7FFF300000
6FFF600110
3FFFE99EE3
0BFFFFFFFD
01CFFFFFFB
0017EFFE81
0000DFF800
000045ED00
0000CFFA00
00006C9100
ENDCHAR
STARTCHAR egrave
ENCODING 232
SWIDTH 573 0
DWIDTH 11 0
BBX 11 17 0 -1
BITMAP
000451000000
000EFFB61000
002FFFFFA000
0005AFFF8000
000001581000
00028BB94000
008FFFFFF900
07FFFFFFFF60
1FFFF97EFFC0
5FFF7009FFE0
7FFFEEEFFFB0
7FFFEDDDDB30
3FFF90003300
0CFFFECEFE20
03EFFFFFFF60
002AFFFFFB10
000013431000
ENDCHAR
STARTCHAR eacute
ENCODING 233
SWIDTH 573 0
DWIDTH 11 0
BBX 11 17 0 -1
BITMAP
000000154000
00016BFFE100
0008FFFFF300
0006FFFB6000
000185100000
00028BB94000
008FFFFFF900
07FFFFFFFF60
1FFFF97EFFC0
5FFF7009FFE0
7FFFEEEFFFB0
7FFFEDDDDB30
3FFF90003300
0CFFFECEFE20
03EFFFFFFF60
002AFFFFFB10
000013431000
ENDCHAR
STARTCHAR ecircumflex
ENCODING 234
SWIDTH 573 0
DWIDTH 11 0
BBX 11 17 0 -1
BITMAP
000016510000
005BFFFFA400
00FFFFFFFD00
00AFE89FF800
001410014000
00028BB94000
008FFFFFF900
07FFFFFFFF60
1FFFF97EFFC0
5FFF7009FFE0
7FFFEEEFFFB0
7FFFEDDDDB30
3FFF90003300
0CFFFECEFE20
03EFFFFFFF60
002AFFFFFB10
000013431000
ENDCHAR
STARTCHAR edieresis
ENCODING 235
SWIDTH 573 0
DWIDTH 11 0
BBX 11 17 0 -1
BITMAP
016610046400
09FFB03FFF20
0BFFD05FFF40
06FF902EFD10
001100001000
00028BB94000
008FFFFFF900
07FFFFFFFF60
1FFFF97EFFC0
5FFF7009FFE0
7FFFEEEFFFB0
7FFFEDDDDB30
3FFF90003300
0CFFFECEFE20
03EFFFFFFF60
002AFFFFFB10
000013431000
ENDCHAR
STARTCHAR igrave
ENCODING 236
SWIDTH 255 0
DWIDTH 5 0
BBX 6 16 -1 0
BITMAP
262000
AFFC72
DFFFFD
49EFFB
000483
004750
02FFF3
03FFF4
03FFF4
03FFF4
03FFF4
03FFF4
03FFF4
03FFF4
03FFF4
00CFC1
ENDCHAR
STARTCHAR iacute
ENCODING 237
SWIDTH 255 0
DWIDTH 5 0
BBX 7 16 0 0
BITMAP
00015400
16BFFE00
9FFFFF20
7FFFB500
18510000
04750000
2FFF3000
3FFF4000
3FFF4000
3FFF4000
3FFF4000
3FFF4000
3FFF4000
3FFF4000
3FFF4000
0CFC1000
ENDCHAR
STARTCHAR icircumflex
ENCODING 238
SWIDTH 255 0
DWIDTH 5 0
BBX 9 16 -2 0
BITMAP
0003630000
18DFFFE910
5FFFFFFF70
2EFC7CFF30
0230003300
0004750000
002FFF3000
003FFF4000
003FFF4000
003FFF4000
003FFF4000
003FFF4000
003FFF4000
003FFF4000
003FFF4000
000CFC1000
ENDCHAR
STARTCHAR idieresis
ENCODING 239
SWIDTH 255 0
DWIDTH 5 0
BBX 10 16 -2 0
BITMAP
2661005630
CFF806FFE0
EFFA08FFF1
9FF604FFC0
0100000100
0004750000
002FFF4000
003FFF5000
003FFF5000
003FFF5000
003FFF5000
003FFF5000
003FFF5000
003FFF5000
003FFF4000
000BFD1000
ENDCHAR
STARTCHAR eth
ENCODING 240
SWIDTH 585 0
DWIDTH 12 0
BBX 12 17 0 -1
BITMAP
000151CB0000
0009FFF80000
000CFFFC1000
0003FFFFC100
0008F59FF900
00005439FF30
003BFFFCFF80
03EFFFFFFFD0
0DFFFFFFFFF0
4FFF812CFFF2
7FFF0005FFF3
7FFF1006FFF1
4FFFC57EFFD0
0CFFFFFFFF60
02DFFFFFF900
0019EFFE6000
000002200000
ENDCHAR
STARTCHAR ntilde
ENCODING 241
SWIDTH 606 0
DWIDTH 12 0
BBX 12 16 0 0
BITMAP
000166105200
003EFFD9FE10
00BFFFFFFC00
007F76EFC200
000100120000
058604872000
2FFFAFFFF700
3FFFFFFFFF50
3FFFFFFFFFD0
3FFFB11AFFF3
3FFF5004FFF4
3FFF4003FFF5
3FFF4003FFF5
3FFF4003FFF5
3FFF4003FFF4
0BEC1000CEC1
ENDCHAR
STARTCHAR ograve
ENCODING 242
SWIDTH 600 0
DWIDTH 12 0
BBX 12 17 0 -1
BITMAP
000262000000
000BFFC72000
000EFFFFD000
0004AEFFB000
000000483000
00028BB83000
007FFFFFF700
07FFFFFFFF70
1EFFFDDFFFE1
5FFF7007FFF5
7FFF1001FFF7
6FFF4004FFF6
3FFFE77EFFF3
0AFFFFFFFFA0
01CFFFFFFD10
0008EFFE8100
000002200000
ENDCHAR
STARTCHAR oacute
ENCODING 243
SWIDTH 600 0
DWIDTH 12 0
BBX 12 17 0 -1
BITMAP
000000045000
00005AEFF200
0006FFFFF500
0004FFFC7100
000086100000
00028BB83000
007FFFFFF700
07FFFFFFFF70
1EFFFDDFFFE1
5FFF7007FFF5
7FFF1001FFF7
6FFF4004FFF6
3FFFE77EFFF3
0AFFFFFFFFA0
01CFFFFFFD10
0008EFFE8100
000002200000
ENDCHAR
STARTCHAR ocircumflex
ENCODING 244
SWIDTH 600 0
DWIDTH 12 0
BBX 12 17 0 -1
BITMAP
000015610000
004AEFFFB500
00DFFFFFFF00
008FE98EFA00
000410014100
00028BB83000
007FFFFFF700
07FFFFFFFF70
1EFFFDDFFFE1
5FFF7007FFF5
7FFF1001FFF7
6FFF4004FFF6
3FFFE77EFFF3
0AFFFFFFFFA0
01CFFFFFFD10
0008EFFE8100
000002200000
ENDCHAR
STARTCHAR otilde
ENCODING 245
SWIDTH 600 0
DWIDTH 12 0
BBX 12 17 0 -1
BITMAP
000265005100
003EFFCAFD00
00CFFFFFFB00
008F67FFC200
000100120000
00028BB83000
007FFFFFF700
07FFFFFFFF70
1EFFFDDFFFE1
5FFF7007FFF5
7FFF1001FFF7
6FFF4004FFF6
3FFFE77EFFF3
0AFFFFFFFFA0
01CFFFFFFD10
0008EFFE8100
000002200000
ENDCHAR
STARTCHAR odieresis
ENCODING 246
SWIDTH 600 0
DWIDTH 12 0
BBX 12 17 0 -1
BITMAP
005620036500
07FFD02FFF40
09FFF03FFF60
05FFB01DFE30
000100001000
00028BB83000
007FFFFFF700
07FFFFFFFF70
1EFFFDDFFFE1
5FFF7007FFF5
7FFF1001FFF7
6FFF4004FFF6
3FFFE77EFFF3
0AFFFFFFFFA0
01CFFFFFFD10
0008EFFE8100
000002200000
ENDCHAR
STARTCHAR divide
ENCODING 247
SWIDTH 503 0
DWIDTH 10 0
BBX 10 11 0 0
BITMAP
0004DD5000
0009FF9000
0007FF8000
0000440000
3CEEEEEED4
7FFFFFFFF8
3DEEEEEEE4
0000340000
0007FF8000
0009FFA000
0004DD5000
ENDCHAR
STARTCHAR oslash
ENCODING 248
SWIDTH 600 0
DWIDTH 12 0
BBX 12 17 0 -3
BITMAP
000000008710
00000006FFC0
0000000DFFC0
00028BCFFF50
007FFFFFFE00
06FFFFFFFF60
1EFFFDDFFFE1
5FFF8008FFF5
7FFF1001FFF7
6FFF4004FFF6
3FFFD67EFFF3
0BFFFFFFFFB0
01EFFFFFFD10
02FFFFFE9100
09FFE3200000
0DFF90000000
06EE20000000
ENDCHAR
STARTCHAR ugrave
ENCODING 249
SWIDTH 606 0
DWIDTH 12 0
BBX 12 16 0 0
BITMAP
000262000000
000BFFC72000
000EFFFFD000
0004AEFFA000
000000483000
058600005860
2FFF4002FFF4
3FFF5003FFF5
3FFF5003FFF5
3FFF5003FFF5
3FFF5003FFF5
2FFF8006FFF5
0EFFFAAFFFF5
08FFFFFFFFF5
00BFFFFEFFF4
0007CEB2BEC1
ENDCHAR
STARTCHAR uacute
ENCODING 250
SWIDTH 606 0
DWIDTH 12 0
BBX 12 16 0 0
BITMAP
000000036100
000038DFF700
0001FFFFFA00
0000EFFD8200
000057300000
058600005860
2FFF4002FFF4
3FFF5003FFF5
3FFF5003FFF5
3FFF5003FFF5
3FFF5003FFF5
2FFF8006FFF5
0EFFFAAFFFF5
08FFFFFFFFF5
00BFFFFEFFF4
0007CEB2BEC1
ENDCHAR
STARTCHAR ucircumflex
ENCODING 251
SWIDTH 606 0
DWIDTH 12 0
BBX 12 16 0 0
BITMAP
000005610000
003AEFFFC500
00CFFFFFFF10
007FFA8EFC00
000410004100
058600005860
2FFF4002FFF4
3FFF5003FFF5
3FFF5003FFF5
3FFF5003FFF5
3FFF5003FFF5
2FFF8006FFF5
0EFFFAAFFFF5
08FFFFFFFFF5
00BFFFFEFFF4
0007CEB2BEC1
ENDCHAR
STARTCHAR udieresis
ENCODING 252
SWIDTH 606 0
DWIDTH 12 0
BBX 12 16 0 0
BITMAP
005630036500
06FFE00EFF60
07FFF11FFF70
03EFC00CFF40
000100001000
058600005860
2FFF4002FFF4
3FFF5003FFF5
3FFF5003FFF5
3FFF5003FFF5
3FFF5003FFF5
2FFF8006FFF5
0EFFFAAFFFF5
08FFFFFFFFF5
00BFFFFEFFF4
0007CEB2BEC1
ENDCHAR
STARTCHAR yacute
ENCODING 253
SWIDTH 604 0
DWIDTH 12 0
BBX 12 21 0 -5
BITMAP
000000036000
000049DFF600
0003FFFFF900
0001FFFD8200
000067300000
06A300002A70
8FFD0000BFFA
7FFF7003FFF9
1DFFE209FFF3
05FFFA1FFFB0
00BFFFBFFF40
003FFFFFFC00
0008FFFFF600
0001EFFFE000
00007FFF7000
0000BFFE1000
0003FFF90000
0009FFF20000
001FFFB00000
002FFF400000
000398000000
ENDCHAR
STARTCHAR thorn
ENCODING 254
SWIDTH 580 0
DWIDTH 12 0
BBX 12 21 0 -5
BITMAP
08B700000000
2FFF00000000
3FFF10000000
3FFF10000000
3FFF10000000
3FFF25750000
3FFFDFFFC200
3FFFFFFFFD10
3FFFFFFFFF90
3FFFA12DFFE0
3FFF2007FFF1
3FFF500AFFF0
3FFFE9BFFFB0
3FFFFFFFFF40
3FFFFFFFF700
3FFF6CEC4000
3FFF10000000
3FFF10000000
3FFF10000000
2FFE00000000
057400000000
ENDCHAR
STARTCHAR ydieresis
ENCODING 255
SWIDTH 604 0
DWIDTH 12 0
BBX 12 21 0 -5
BITMAP
004640026610
02FFF30CFF90
04FFF40DFFB0
01DFE209FF70
000100001000
06A300002A70
8FFD0000BFFA
7FFF7003FFF9
1DFFE209FFF3
05FFFA1FFFB0
00BFFFBFFF40
003FFFFFFC00
0008FFFFF600
0001EFFFE000
00007FFF7000
0000BFFE1000
0003FFF90000
0009FFF20000
001FFFB00000
002FFF400000
000398000000
ENDCHAR
STARTCHAR dotlessi
ENCODING 305
SWIDTH 255 0
DWIDTH 5 0
BBX 5 11 0 0
BITMAP
047500
2FFF30
3FFF40
3FFF40
3FFF40
3FFF40
3FFF40
3FFF40
3FFF40
3FFF40
0CFC10
ENDCHAR
STARTCHAR Lslash
ENCODING 321
SWIDTH 687 0
DWIDTH 14 0
BBX 14 15 0 0
BITMAP
00069800000000
002FFF40000000
003FFF50000000
003FFF50000000
003FFF50000000
003FFFBCC00000
017FFFFFF30000
5FFFFFFD800000
5FFFFF60000000
067FFF50000000
003FFF50000000
003FFF50000000
003FFFFEEEEEC1
003FFFFFFFFFF3
000CFFFFFFFFD1
ENDCHAR
STARTCHAR lslash
ENCODING 322
SWIDTH 468 0
DWIDTH 9 0
BBX 9 16 0 0
BITMAP
0005740000
004FFF1000
005FFF2000
005FFF2000
005FFF2000
005FFF2000
005FFFADA0
029FFFFFF0
8FFFFFFC70
8FFFFF3000
168FFF2000
005FFF2000
005FFF8300
003FFFFE00
000EFFFF10
0004BEFC00
ENDCHAR
STARTCHAR OE
ENCODING 338
SWIDTH 1092 0
DWIDTH 22 0
BBX 22 15 0 0
BITMAP
0000058AAAAAAAAAAAAA80
0004DFFFFFFFFFFFFFFFF4
006FFFFFFFFFFFFFFFFFF5
04FFFFFCCCFFFEDDDDDDB1
0CFFFA1002FFF600000000
3FFFA00002FFF711110000
6FFF300002FFFFFFFFC000
7FFF100002FFFFFFFFF200
6FFF200002FFFFFFFFF100
4FFF700002FFFA77763000
0EFFF50002FFF600000000
06FFFFB778FFFB88888860
00AFFFFFFFFFFFFFFFFFF4
0009FFFFFFFFFFFFFFFFF5
000039DFFFFFFFFFFFFFD1
ENDCHAR
STARTCHAR oe
ENCODING 339
SWIDTH 944 0
DWIDTH 19 0
BBX 19 12 0 -1
BITMAP
00028AA8200489850000
007FFFFFF7CFFFFFC200
06FFFFFFFFFFFFFFFC00
1EFFFDDFFFFFC7AFFF30
5FFF8008FFFD102FFF50
7FFF1002FFFFEEFFFF20
6FFF3004FFFECCCCC600
3FFFD66EFFFE40024000
0BFFFFFFFFFFFDEFF800
01DFFFFFFEFFFFFFFC00
0019EFFE915CFFFEA300
00000230000012100000
ENDCHAR
STARTCHAR Scaron
ENCODING 352
SWIDTH 583 0
DWIDTH 12 0
BBX 12 21 0 -1
BITMAP
002610036000
00DFFACFF800
01FFFFFFFC00
0049EFFD8200
000004200000
0018CDDA5000
02DFFFFFFB00
0BFFFFFFFF40
2FFFD68FFC00
3FFF50026100
2FFFC4000000
0CFFFFFC7100
02DFFFFFFE30
0017CFFFFFC0
0000026DFFF1
09E70007FFF2
6FFF923CFFF0
4FFFFFFFFFA0
07FFFFFFFD10
004CFFFE8100
000012200000
ENDCHAR
STARTCHAR scaron
ENCODING 353
SWIDTH 489 0
DWIDTH 10 0
BBX 10 17 0 -1
BITMAP
0361004500
1EFE9DFF60
3FFFFFFF90
05AEFFC710
0001420000
0048AA9400
07FFFFFFA0
1FFFFFFF90
2FFF315810
0FFFEB8300
09FFFFFF70
008EFFFFF1
067248FFF4
3FFEABFFF3
6FFFFFFFC0
06CFFFEA20
0001320000
ENDCHAR
STARTCHAR Ydieresis
ENCODING 376
SWIDTH 686 0
DWIDTH 14 0
BBX 14 20 0 0
BITMAP
00166200464000
008FFD02FFF400
009FFE03FFF500
005FFA01DFE200
00001000010000
07C40000008C40
8FFE100004FFF3
7FFFA0001DFFF3
1DFFF4008FFF90
04FFFD03FFFD10
008FFF8CFFF400
001DFFFFFF9000
0004FFFFFD1000
00008FFFF40000
00001EFFB00000
00000EFFA00000
00000EFFA00000
00000EFFA00000
00000EFF900000
000009FF500000
ENDCHAR
STARTCHAR Zcaron
ENCODING 381
SWIDTH 643 0
DWIDTH 13 0
BBX 13 21 0 -1
BITMAP
00054001530000
004FFD9EFF2000
008FFFFFFF5000
0016BFFFA50000
00000141000000
19AAAAAAAA9300
7FFFFFFFFFFE00
7FFFFFFFFFFE00
2BCCCCCFFFF700
0000009FFFB000
000004FFFE2000
00001EFFF50000
0000BFFF900000
0007FFFC100000
003FFFF3000000
01DFFF60000000
0AFFFE66666400
4FFFFFFFFFFF30
6FFFFFFFFFFF50
1CFFFFFFFFFE20
00111111111000
ENDCHAR
STARTCHAR zcaron
ENCODING 382
SWIDTH 586 0
DWIDTH 12 0
BBX 12 16 0 0
BITMAP
001630026100
00AFFBBFFB00
00DFFFFFFF00
0028DFFD9300
000003300000
048888888710
0EFFFFFFFFB0
1FFFFFFFFFD0
09EEEFFFFF50
00003DFFF500
0004EFFE4000
005FFFE30000
07FFFFA88840
4FFFFFFFFFF2
7FFFFFFFFFF3
1CFFFFFFFFC0
ENDCHAR
STARTCHAR florin
ENCODING 402
SWIDTH 529 0
DWIDTH 11 0
BBX 11 20 0 -5
BITMAP
0000005ACB10
000009FFFF40
00006FFFFF20
0000CFFE9600
0000FFF70000
01BDFFFDDC10
05FFFFFFFF40
06FFFFFFFF20
017BFFF88400
0008FFE00000
0009FFD00000
000BFFB00000
000DFF900000
000EFF800000
001FFF600000
003FFF400000
4CFFFE100000
DFFFF8000000
FFFFB0000000
476300000000
ENDCHAR
STARTCHAR circumflex
ENCODING 710
SWIDTH 603 0
DWIDTH 12 0
BBX 8 5 2 11
BITMAP
00156100
4AFFFFB5
DFFFFFFE
9FE98EFA
04100141
ENDCHAR
STARTCHAR caron
ENCODING 711
SWIDTH 600 0
DWIDTH 12 0
BBX 8 5 2 11
BITMAP
16200261
AFFBBFFB
DFFFFFFE
28DFFD93
00033000
ENDCHAR
STARTCHAR dotaccent
ENCODING 729
SWIDTH 285 0
DWIDTH 6 0
BBX 4 4 1 14
BITMAP
2871
BFF9
CFFA
6DD5
ENDCHAR
STARTCHAR ring
ENCODING 730
SWIDTH 378 0
DWIDTH 8 0
BBX 6 6 1 13
BITMAP
015300
2EFFA0
AC15F3
BA01F4
6FADE1
05B920
ENDCHAR
STARTCHAR ogonek
ENCODING 731
SWIDTH 570 0
DWIDTH 11 0
BBX 5 5 3 -4
BITMAP
038700
3FFF50
7F7700
4FFF40
07CA20
ENDCHAR
STARTCHAR tilde
ENCODING 732
SWIDTH 584 0
DWIDTH 12 0
BBX 9 5 1 11
BITMAP
0046302500
0AFFF9DF60
5FFFFFFF40
2DC4CFF700
0100021000
ENDCHAR
STARTCHAR endash
ENCODING 8211
SWIDTH 561 0
DWIDTH 11 0
BBX 11 5 0 3
BITMAP
011111111100
7FFFFFFFFFA0
AFFFFFFFFFD0
7FFFFFFFFFB0
022222222200
ENDCHAR
STARTCHAR emdash
ENCODING 8212
SWIDTH 693 0
DWIDTH 14 0
BBX 14 5 0 3
BITMAP
01111111111100
7FFFFFFFFFFFF4
AFFFFFFFFFFFF8
7FFFFFFFFFFFF5
02222222222210
ENDCHAR
STARTCHAR quoteleft
ENCODING 8216
SWIDTH 237 0
DWIDTH 5 0
BBX 5 8 0 7
BITMAP
004910
05FE20
0DF300
4FF400
6FFF20
7FFF30
4FFE10
024100
ENDCHAR
STARTCHAR quoteright
ENCODING 8217
SWIDTH 237 0
DWIDTH 5 0
BBX 5 8 0 7
BITMAP
18A600
6FFF30
7FFF30
3EFF10
03FD00
1BF600
7FA000
120000
ENDCHAR
STARTCHAR quotesinglbase
ENCODING 8218
SWIDTH 237 0
DWIDTH 5 0
BBX 5 8 0 -4
BITMAP
19A700
7FFF30
7FFF30
3DFF10
04FD00
2BF600
7F9000
120000
ENDCHAR
STARTCHAR quotedblleft
ENCODING 8220
SWIDTH 482 0
DWIDTH 10 0
BBX 10 8 0 7
BITMAP
0049100590
05FE206FE1
0DF301EE10
4FF405FD30
6FFF28FFE1
7FFF39FFF2
4FFE16FFD0
0241002310
ENDCHAR
STARTCHAR quotedblright
ENCODING 8221
SWIDTH 482 0
DWIDTH 10 0
BBX 10 8 0 7
BITMAP
18A6019A50
6FFF38FFF1
7FFF39FFF2
3EFF15FFF1
03FD005FC0
1BF602CF50
7FA008F800
1200012000
ENDCHAR
STARTCHAR quotedblbase
ENCODING 8222
SWIDTH 482 0
DWIDTH 10 0
BBX 10 8 0 -4
BITMAP
19A7029A60
7FFF38FFF1
7FFF39FFF2
3DFF14EFF0
04FD005FB0
2BF602CF50
7F9008F700
1200011000
ENDCHAR
STARTCHAR dagger
ENCODING 8224
SWIDTH 527 0
DWIDTH 11 0
BBX 11 19 0 -4
BITMAP
0003CE900000
0007FFF00000
0007FFF00000
0007FFF00000
0338FFF24100
8FFFFFFFFE10
AFFFFFFFFF30
5DDEFFFDEC10
0007FFF00000
0007FFF00000
0007FFF00000
0007FFF00000
0007FFF00000
0007FFF00000
0007FFF00000
0007FFF00000
0007FFF00000
0006FFF00000
0002AB600000
ENDCHAR
STARTCHAR daggerdbl
ENCODING 8225
SWIDTH 527 0
DWIDTH 11 0
BBX 11 19 0 -4
BITMAP
0003CE900000
0007FFF00000
0007FFF00000
0007FFF00000
0338FFF24100
8FFFFFFFFE10
AFFFFFFFFF30
5DDEFFFDEC10
0007FFF00000
0007FFF00000
0107FFF01000
7FFFFFFFFD10
AFFFFFFFFF30
6FFFFFFFFE10
0117FFF01000
0007FFF00000
0007FFF00000
0006FFF00000
0002AB600000
ENDCHAR
STARTCHAR bullet
ENCODING 8226
SWIDTH 342 0
DWIDTH 7 0
BBX 7 7 0 3
BITMAP
00131000
0AFFF700
4FFFFF20
7FFFFF50
6FFFFF30
1EFFFC00
01786100
ENDCHAR
STARTCHAR ellipsis
ENCODING 8230
SWIDTH 911 0
DWIDTH 18 0
BBX 18 4 0 0
BITMAP
19A70003AA50005AA2
7FFF300BFFE000EFFA
7FFF300BFFE000FFFA
3DFC1006EF80009FE5
ENDCHAR
STARTCHAR perthousand
ENCODING 8240
SWIDTH 1223 0
DWIDTH 24 0
BBX 24 17 0 -1
BITMAP
000000000004700000000000
005AA700001DE10000000000
06FFFFB0007F800000000000
0EFDBFF401EE100000000000
2FF10BF708F7000000000000
2FF10BF71ED1000000000000
0EFDBFF59F60000000000000
06FFFFC2FD00000000000000
0049A719F504641000156300
0000003FC0AFFFD202DFFF90
000000AF45FFFFFA0AFFFFF4
000003FB09FA06FD0EF50BF8
00000BF30AF703FE1FF208F9
00004FA008FD6BFD0DFA6EF7
0000CF3002FFFFF707FFFFF2
0004FA00004DFE80008EFC40
000172000000000000000000
ENDCHAR
STARTCHAR guilsinglleft
ENCODING 8249
SWIDTH 383 0
DWIDTH 8 0
BBX 8 11 0 0
BITMAP
00001710
0002DFD1
002DFFF4
02DFFF90
2DFFFA00
AFFFB000
6FFFE400
08FFFE40
007FFFE2
0007FFF3
00007E70
ENDCHAR
STARTCHAR guilsinglright
ENCODING 8250
SWIDTH 383 0
DWIDTH 8 0
BBX 8 11 0 0
BITMAP
04600000
4FFA0000
9FFFA000
2DFFFA00
02DFFFA0
002EFFF5
008FFFE2
08FFFE30
6FFFE300
8FFE3000
1BD30000
ENDCHAR
STARTCHAR fraction
ENCODING 8260
SWIDTH 433 0
DWIDTH 9 0
BBX 11 17 0 -1
BITMAP
000000003810
00000000BF30
00000004FB00
0000000CF300
0000005FA000
000000CF2000
000006F90000
00000DF20000
00006F800000
0001EE100000
0007F7000000
001EE1000000
008F60000000
02ED00000000
09F600000000
1FC000000000
063000000000
ENDCHAR
STARTCHAR Euro
ENCODING 8364
SWIDTH 612 0
DWIDTH 12 0
BBX 12 16 0 0
BITMAP
000000466661
00006EFFFFF9
0008FFFFFFFB
002FFFFFFFF7
008FFF821110
26DFFE666620
AFFFFFFFFF90
5BFFFCBBBA40
03FFF7222200
9FFFFFFFFF80
8FFFFFFFFF70
00AFFE100000
005FFFC88871
000CFFFFFFF9
0002EFFFFFFA
000018DEEEE5
ENDCHAR
STARTCHAR trademark
ENCODING 8482
SWIDTH 840 0
DWIDTH 17 0
BBX 16 9 0 4
BITMAP
5AAAAAA35A3002A6
AFFFFFF7CFD10CFE
5ACFFBA3DFFA8FFF
005FF200DFFFFFFF
005FF200DFFFFFFF
005FF200DFCFFCFF
005FF200DF9347FF
003FF100CF8006FE
0003200013000032
ENDCHAR
STARTCHAR minus
ENCODING 8722
SWIDTH 581 0
DWIDTH 12 0
BBX 12 5 0 3
BITMAP
001111111100
4FFFFFFFFFC0
7FFFFFFFFFF1
4FFFFFFFFFD0
012222222200
ENDCHAR
STARTCHAR f_f
ENCODING 64256
SWIDTH 803 0
DWIDTH 16 0
BBX 16 16 0 0
BITMAP
0000268500026850
0007FFFF206FFFF2
004FFFFF23FFFFF3
00BFFFFB0AFFFFC0
00DFFB000CFFC000
27EFFC777DFFD772
9FFFFFFFFFFFFFFA
AFFFFFFFFFFFFFFB
6EFFFFEFEFFFFEE5
00DFFA000CFFB000
00DFFA000CFFB000
00DFFA000CFFB000
00DFFA000CFFB000
00DFFA000CFFB000
00DFFA000CFFA000
007EE50007EE5000
ENDCHAR
STARTCHAR fi
ENCODING 64257
SWIDTH 709 0
DWIDTH 14 0
BBX 14 16 0 0
BITMAP
00002674003650
0007FFFF11FFF4
004FFFFF22FFF5
00BFFFFC00CFE2
00DFFB00000000
16EFFC77104760
9FFFFFFF91FFF5
AFFFFFFFA2FFF6
6EFFFFFE52FFF6
00DFFA0002FFF6
00DFFA0002FFF6
00DFFA0002FFF6
00DFFA0002FFF6
00DFFA0002FFF6
00DFFA0002FFF5
008FE50000BFD2
ENDCHAR
STARTCHAR fl
ENCODING 64258
SWIDTH 774 0
DWIDTH 15 0
BBX 16 16 0 0
BITMAP
0000267400574000
0007FFFF13FFF200
004FFFFF24FFF300
00BFFFFC04FFF400
00DFFB0004FFF400
16EFFC7714FFF400
9FFFFFFF94FFF400
AFFFFFFFA4FFF400
6EFFFFFE54FFF400
00DFFA0004FFF400
00DFFA0004FFF400
00DFFA0004FFF400
00DFFA0004FFF940
00DFFA0002FFFFF1
00DFFA0000DFFFF2
008FE500003BEFD0
ENDCHAR
STARTCHAR f_f_i
ENCODING 64259
SWIDTH 1059 0
DWIDTH 21 0
BBX 21 16 0 0
BITMAP
0000268500026850025300
0007FFFF206FFFF20EFF40
004FFFFF23FFFFF31FFF50
00BFFFFB0AFFFFC00CFE20
00DFFB000CFFC000001000
27EFFC777DFFD772036500
9FFFFFFFFFFFFFFA1FFF40
AFFFFFFFFFFFFFFB1FFF60
6EFFFFEFEFFFFEE51FFF60
00DFFA000CFFB0001FFF60
00DFFA000CFFB0001FFF60
00DFFA000CFFB0001FFF60
00DFFA000CFFB0001FFF60
00DFFA000CFFB0001FFF60
00DFFA000CFFA0001FFF50
007EE50007EE50000BFD20
ENDCHAR
STARTCHAR .notdef
ENCODING -1
SWIDTH 500 0
DWIDTH 10 0
BBX 1 1 0 0
BITMAP
00
ENDCHAR
STARTCHAR .null
ENCODING -1
SWIDTH 0 0
DWIDTH 0 0
BBX 1 1 0 0
BITMAP
00
ENDCHAR
STARTCHAR nonmarkingreturn
ENCODING -1
SWIDTH 333 0
DWIDTH 7 0
BBX 1 1 0 0
BITMAP
00
ENDCHAR
STARTCHAR f_t
ENCODING -1
SWIDTH 814 0
DWIDTH 16 0
BBX 16 16 0 0
BITMAP
0000268500000000
0007FFFF20120000
004FFFFF25FFA000
00BFFFFB08FFE000
00DFFB0008FFE000
27EFFC777BFFE773
9FFFFFFFFFFFFFFD
AFFFFFFFFFFFFFFE
6EFFFFEFEFFFFEF9
00DFFA0008FFE000
00DFFA0008FFE000
00DFFA0008FFE000
00DFFA0008FFF630
00DFFA0004FFFFF4
00DFFA0000BFFFF6
007EE5000018DFD2
ENDCHAR
STARTCHAR t_t
ENCODING -1
SWIDTH 794 0
DWIDTH 16 0
BBX 16 15 0 0
BITMAP
0002100000110000
00AFF6000BFF4000
00DFF9000EFF8000
00DFF9000EFF8000
27EFFC777FFFB771
9FFFFFFFFFFFFFF7
AFFFFFFFFFFFFFF8
6EFFFFEFEFFFFFE4
00DFF9000EFF8000
00DFF9000EFF8000
00DFF9000EFF8000
00CFFD520EFFC420
009FFFFE1BFFFFD0
002EFFFF13FFFFF0
0003AEFB003BEFA0
ENDCHAR
STARTCHAR l_l
ENCODING -1
SWIDTH 626 0
DWIDTH 13 0
BBX 13 16 0 0
BITMAP
04750027710000
2FFF30BFF90000
3FFF40CFFB0000
3FFF40CFFB0000
3FFF40CFFB0000
3FFF40CFFB0000
3FFF40CFFB0000
3FFF40CFFB0000
3FFF40CFFB0000
3FFF40CFFB0000
3FFF40CFFB0000
3FFF40CFFB0000
2FFFA2BFFE8500
1FFFFA8FFFFF20
0AFFFB2EFFFF30
019DE602ADEA00
ENDCHAR
STARTCHAR j_j
ENCODING -1
SWIDTH 521 0
DWIDTH 10 0
BBX 13 21 -3 -5
BITMAP
00002530014400
0002FFF20AFF70
0003FFF30CFF90
0001DFD108FF50
00000100001000
00005740027610
0002FFF20BFF80
0003FFF30CFF90
0003FFF40CFF90
0003FFF40CFF90
0003FFF40CFF90
0003FFF40CFF90
0003FFF40CFF90
0003FFF40CFF90
0003FFF40CFF90
0003FFF30CFF90
0009FFF20DFF80
3BDFFFC5CFFF60
9FFFFF4CFFFF10
8FFFE50BFFF600
29961003994000
ENDCHAR
ENDFONT
